<svg width="16" height="16" viewBox="0 0 16 16" fill="none" xmlns="http://www.w3.org/2000/svg">
<path fill-rule="evenodd" clip-rule="evenodd" d="M12.1692 6.76058C12.1692 9.74805 9.74809 12.1691 6.76063 12.1691C3.77317 12.1691 1.35209 9.74805 1.35209 6.76058C1.35209 3.77311 3.77317 1.35203 6.76063 1.35203C9.74809 1.35203 12.1692 3.77311 12.1692 6.76058ZM11.0858 11.9571C9.91364 12.934 8.40595 13.5214 6.76068 13.5214C3.02705 13.5214 0 10.4943 0 6.76069C0 3.02706 3.02705 0 6.76068 0C10.4943 0 13.5214 3.02706 13.5214 6.76069C13.5214 8.40608 12.934 9.91366 11.9571 11.0858C12.0441 11.1188 12.1261 11.1703 12.1963 11.2405L15.8022 14.8464C16.0659 15.1101 16.0659 15.5386 15.8022 15.8022C15.5386 16.0659 15.1101 16.0659 14.8464 15.8022L11.2405 12.1963C11.1703 12.1261 11.1187 12.0442 11.0858 11.9571Z" fill="white"/>
</svg>
