<svg width="24" height="24" viewBox="0 0 36 35" fill="none" xmlns="http://www.w3.org/2000/svg">
<path d="M6.47601 13.4903L7.10791 13.9586C7.52484 14.2675 8.25345 14.5095 8.76661 14.5095H14.3039C14.9128 14.5095 15.5372 14.0458 15.7253 13.4539L17.4364 8.08057C17.5955 7.58177 17.5955 6.79967 17.4364 6.30017L17.1953 5.54297C17.026 5.01248 16.7203 4.93331 16.5532 4.93331C16.3858 4.93331 16.08 5.01254 15.9113 5.54318L13.9241 11.7836C13.8475 12.0248 13.5518 12.2442 13.3036 12.2442H6.87312C6.32725 12.2442 6.15893 12.5163 6.10719 12.6785C6.05541 12.8408 6.03446 13.162 6.47601 13.4903Z" fill="black"/>
<path d="M13.4417 20.6306C13.6296 20.0389 13.3908 19.2897 12.8981 18.9246L8.4189 15.6031C8.00244 15.2949 7.27405 15.0536 6.76035 15.0536H5.97927C5.43277 15.0536 5.26455 15.326 5.21292 15.4883C5.1613 15.6506 5.14067 15.9718 5.58254 16.2991L10.7854 20.1574C10.986 20.3063 11.099 20.6607 11.0224 20.9009L9.03495 27.1439C8.93467 27.4592 8.95126 27.7137 9.08418 27.9004C9.18732 28.0453 9.35044 28.1284 9.53163 28.1284C9.70177 28.1284 9.87892 28.0582 10.0732 27.9141L10.7056 27.4446C11.1214 27.1367 11.5718 26.504 11.7306 26.0044L13.4417 20.6306Z" fill="black"/>
<path d="M20.2747 13.454C20.4637 14.046 21.0882 14.5095 21.6966 14.5095H27.2334C27.7469 14.5095 28.4757 14.2674 28.8924 13.9584L29.5236 13.4907C29.9661 13.1624 29.9454 12.8411 29.8937 12.6787C29.842 12.5165 29.6737 12.2442 29.1271 12.2442H22.6963C22.4483 12.2442 22.1528 12.0249 22.0764 11.784L20.0893 5.54297C19.92 5.01243 19.6144 4.93326 19.4472 4.93326C19.2799 4.93326 18.974 5.01254 18.8056 5.5434L18.5643 6.3C18.4052 6.79967 18.4052 7.58177 18.5644 8.08073L20.2747 13.454Z" fill="black"/>
<path d="M30.7874 15.4884C30.7359 15.326 30.5676 15.0535 30.0209 15.0535H29.2401C28.7269 15.0535 27.9985 15.2947 27.5819 15.6025L23.1021 18.9246C22.6092 19.2898 22.3706 20.0392 22.5591 20.6306L24.2697 26.0045C24.429 26.5045 24.8797 27.1373 25.2957 27.4449L25.9263 27.9129C26.1208 28.0574 26.2983 28.1277 26.4686 28.1277C26.6498 28.1277 26.8129 28.0446 26.916 27.8997C27.0489 27.713 27.0654 27.4585 26.9649 27.1432L24.9782 20.9011C24.9018 20.6604 25.0145 20.3059 25.2149 20.1574L30.4177 16.2988C30.8595 15.972 30.839 15.6508 30.7874 15.4884Z" fill="black"/>
<path d="M24.3828 28.1211C24.2236 27.6212 23.773 26.9887 23.357 26.6813L18.8787 23.3591C18.6388 23.182 18.327 23.0848 17.9999 23.0848C17.6729 23.0848 17.3611 23.1819 17.1217 23.3584L12.642 26.6819C12.2256 26.9905 11.7754 27.623 11.6172 28.1218L11.3759 28.879C11.2754 29.1942 11.2919 29.4487 11.4247 29.6354C11.5279 29.7803 11.6909 29.8634 11.8722 29.8634C12.0421 29.8634 12.2192 29.7935 12.4136 29.6497L17.6162 25.7913C17.7112 25.721 17.8511 25.6805 17.9999 25.6805C18.1485 25.6805 18.2882 25.7209 18.3832 25.7913L23.5861 29.6493C23.7802 29.7936 23.9575 29.8638 24.1278 29.8638C24.309 29.8638 24.4721 29.7808 24.5753 29.6359C24.7083 29.4492 24.7249 29.1946 24.6246 28.8793L24.3828 28.1211Z" fill="black"/>
<path d="M2.25611 10.5858L2.84898 11.0256C3.29308 11.3549 4.06932 11.6128 4.6162 11.6128H12.0938C12.7363 11.6128 13.3952 11.1233 13.5937 10.4985L15.9039 3.24162C16.0738 2.70935 16.0737 1.87602 15.9037 1.34477L15.6778 0.633804C15.5022 0.0823196 15.1888 1.5623e-06 15.0176 1.5623e-06C14.8465 1.5623e-06 14.5332 0.0823199 14.3573 0.633262L11.7617 8.78637C11.6755 9.05758 11.3426 9.30443 11.0632 9.30443H2.66406C2.09619 9.30443 1.9227 9.5834 1.8698 9.74967C1.81695 9.91593 1.7968 10.2456 2.25611 10.5858Z" fill="black"/>
<path d="M22.4055 10.4986C22.6049 11.1235 23.264 11.6128 23.906 11.6128H31.383C31.9295 11.6128 32.7059 11.355 33.1505 11.0258L33.7438 10.5855C34.2026 10.2457 34.1824 9.91598 34.1296 9.74972C34.0767 9.5834 33.9032 9.30437 33.3354 9.30437H24.9368C24.6576 9.30437 24.3241 9.0572 24.2374 8.78577L21.642 0.633532C21.4671 0.0823187 21.1533 0 20.9818 0C20.8104 0 20.4966 0.0823185 20.3214 0.633749L20.0952 1.34558C19.926 1.87661 19.926 2.70913 20.0953 3.24048L22.4055 10.4986Z" fill="black"/>
<path d="M26.0687 33.2719C25.8996 32.74 25.4198 32.0661 24.9766 31.7376L18.9276 27.2522C18.6754 27.065 18.3459 26.9617 17.9999 26.9617C17.6538 26.9617 17.3244 27.0651 17.0724 27.2527L11.0244 31.7377C10.5815 32.0658 10.1017 32.7397 9.93214 33.2716L9.7056 33.9829C9.60081 34.3114 9.61692 34.5756 9.75366 34.7679C9.85856 34.9153 10.0247 34.9999 10.2095 34.9999C10.3859 34.9999 10.5706 34.9264 10.7744 34.7749L17.5683 29.7373C17.6758 29.6576 17.8331 29.6119 17.9999 29.6119C18.1669 29.6119 18.3247 29.6577 18.4327 29.7376L25.2265 34.7752C25.4302 34.9264 25.615 35 25.7914 35C25.9762 35 26.1423 34.9154 26.2472 34.7679C26.3838 34.5758 26.3999 34.312 26.2951 33.9837L26.0687 33.2719Z" fill="black"/>
<path d="M35.9729 15.5384C35.9199 15.3721 35.7462 15.0931 35.1787 15.0931H34.4459C33.898 15.0931 33.1217 15.3512 32.6786 15.6806L26.6293 20.1664C26.1099 20.5508 25.8578 21.3412 26.0559 21.9657L28.3665 29.2232C28.5363 29.7555 29.0163 30.4296 29.4595 30.758L30.0516 31.1973C30.255 31.3482 30.4396 31.4217 30.6158 31.4217C30.8005 31.4217 30.9666 31.3371 31.0716 31.1898C31.2083 30.9977 31.2247 30.7335 31.1201 30.4046L28.5251 22.2523C28.4389 21.9816 28.5661 21.5818 28.792 21.4136L35.5868 16.3761C36.0464 16.0347 36.026 15.7047 35.9729 15.5384Z" fill="black"/>
<path d="M9.3703 20.1662L3.32094 15.6804C2.8779 15.3512 2.10172 15.0932 1.55409 15.0932H0.821025C0.253679 15.0932 0.0800879 15.3722 0.0270802 15.5385C-0.0259806 15.7048 -0.0463969 16.0348 0.412861 16.376L7.20805 21.4142C7.43374 21.582 7.56113 21.9817 7.47495 22.2525L4.87938 30.4058C4.77475 30.7348 4.79107 30.9987 4.92766 31.1906C5.03255 31.3378 5.19859 31.4223 5.38319 31.4223C5.55901 31.4223 5.74361 31.3491 5.9474 31.1985L6.54107 30.7587C6.98352 30.4304 7.4632 29.7566 7.63338 29.2245L9.94403 21.9663C10.1422 21.3414 9.89012 20.5508 9.3703 20.1662Z" fill="black"/>
</svg>
