<svg width="38" height="37" viewBox="0 0 38 37" fill="none" xmlns="http://www.w3.org/2000/svg">
<g filter="url(#filter0_d_45_492)">
<path d="M7.47601 13.4903L8.10791 13.9585C8.52484 14.2675 9.25345 14.5095 9.76661 14.5095H15.3039C15.9128 14.5095 16.5372 14.0458 16.7253 13.4539L18.4364 8.08057C18.5955 7.58177 18.5955 6.79966 18.4364 6.30016L18.1953 5.54297C18.026 5.01248 17.7203 4.93331 17.5532 4.93331C17.3858 4.93331 17.08 5.01253 16.9113 5.54318L14.9241 11.7836C14.8475 12.0248 14.5518 12.2442 14.3036 12.2442H7.87312C7.32725 12.2442 7.15893 12.5163 7.10719 12.6785C7.05541 12.8408 7.03446 13.162 7.47601 13.4903Z" fill="url(#paint0_linear_45_492)"/>
<path d="M14.4417 20.6306C14.6296 20.0389 14.3908 19.2897 13.8981 18.9246L9.4189 15.6031C9.00244 15.2949 8.27405 15.0536 7.76035 15.0536H6.97927C6.43277 15.0536 6.26455 15.326 6.21292 15.4883C6.1613 15.6506 6.14067 15.9717 6.58254 16.2991L11.7854 20.1574C11.986 20.3062 12.099 20.6607 12.0224 20.9009L10.0349 27.1439C9.93467 27.4592 9.95126 27.7137 10.0842 27.9004C10.1873 28.0453 10.3504 28.1283 10.5316 28.1283C10.7018 28.1283 10.8789 28.0582 11.0732 27.9141L11.7056 27.4446C12.1214 27.1367 12.5718 26.504 12.7306 26.0044L14.4417 20.6306Z" fill="url(#paint1_linear_45_492)"/>
<path d="M21.2747 13.454C21.4637 14.046 22.0882 14.5095 22.6966 14.5095H28.2334C28.7469 14.5095 29.4757 14.2674 29.8924 13.9584L30.5236 13.4907C30.9661 13.1624 30.9454 12.8411 30.8937 12.6787C30.842 12.5165 30.6737 12.2442 30.1271 12.2442H23.6963C23.4483 12.2442 23.1528 12.0249 23.0764 11.784L21.0893 5.54297C20.92 5.01243 20.6144 4.93325 20.4472 4.93325C20.2799 4.93325 19.974 5.01253 19.8056 5.5434L19.5643 6.3C19.4052 6.79966 19.4052 7.58177 19.5644 8.08073L21.2747 13.454Z" fill="url(#paint2_linear_45_492)"/>
<path d="M31.7874 15.4884C31.7359 15.326 31.5676 15.0535 31.0209 15.0535H30.2401C29.7269 15.0535 28.9985 15.2947 28.5819 15.6025L24.1021 18.9246C23.6092 19.2898 23.3706 20.0392 23.5591 20.6306L25.2697 26.0044C25.429 26.5045 25.8797 27.1373 26.2957 27.4449L26.9263 27.9129C27.1208 28.0574 27.2983 28.1277 27.4686 28.1277C27.6498 28.1277 27.8129 28.0446 27.916 27.8997C28.0489 27.713 28.0654 27.4584 27.9649 27.1432L25.9782 20.9011C25.9018 20.6604 26.0145 20.3059 26.2149 20.1574L31.4177 16.2988C31.8595 15.972 31.839 15.6508 31.7874 15.4884Z" fill="url(#paint3_linear_45_492)"/>
<path d="M25.3828 28.1211C25.2236 27.6212 24.773 26.9887 24.357 26.6813L19.8787 23.3591C19.6388 23.182 19.327 23.0848 18.9999 23.0848C18.6729 23.0848 18.3611 23.1819 18.1217 23.3584L13.642 26.6819C13.2256 26.9905 12.7754 27.623 12.6172 28.1218L12.3759 28.8789C12.2754 29.1942 12.2919 29.4487 12.4247 29.6354C12.5279 29.7803 12.6909 29.8634 12.8722 29.8634C13.0421 29.8634 13.2192 29.7935 13.4136 29.6497L18.6162 25.7913C18.7112 25.721 18.8511 25.6805 18.9999 25.6805C19.1485 25.6805 19.2882 25.7209 19.3832 25.7913L24.5861 29.6493C24.7802 29.7936 24.9575 29.8638 25.1278 29.8638C25.309 29.8638 25.4721 29.7808 25.5752 29.6359C25.7083 29.4492 25.7249 29.1946 25.6246 28.8793L25.3828 28.1211Z" fill="url(#paint4_linear_45_492)"/>
<path d="M3.25611 10.5858L3.84898 11.0256C4.29308 11.3549 5.06932 11.6128 5.6162 11.6128H13.0938C13.7363 11.6128 14.3952 11.1233 14.5937 10.4985L16.9039 3.24162C17.0738 2.70935 17.0737 1.87602 16.9037 1.34477L16.6778 0.633805C16.5022 0.08232 16.1888 1.99063e-06 16.0176 1.99063e-06C15.8465 1.99063e-06 15.5332 0.0823203 15.3573 0.633262L12.7617 8.78637C12.6755 9.05758 12.3426 9.30443 12.0632 9.30443H3.66406C3.09619 9.30443 2.9227 9.5834 2.8698 9.74966C2.81695 9.91593 2.7968 10.2456 3.25611 10.5858Z" fill="url(#paint5_linear_45_492)"/>
<path d="M23.4055 10.4986C23.6049 11.1235 24.264 11.6128 24.906 11.6128H32.383C32.9295 11.6128 33.7059 11.355 34.1505 11.0258L34.7438 10.5855C35.2026 10.2457 35.1825 9.91598 35.1296 9.74972C35.0767 9.5834 34.9032 9.30437 34.3354 9.30437H25.9368C25.6576 9.30437 25.3241 9.0572 25.2374 8.78577L22.642 0.633532C22.4671 0.0823186 22.1533 0 21.9818 0C21.8104 0 21.4966 0.0823185 21.3214 0.633749L21.0952 1.34558C20.926 1.87661 20.926 2.70913 21.0953 3.24048L23.4055 10.4986Z" fill="url(#paint6_linear_45_492)"/>
<path d="M27.0687 33.2719C26.8996 32.74 26.4198 32.0661 25.9766 31.7376L19.9276 27.2522C19.6754 27.065 19.3459 26.9617 18.9999 26.9617C18.6538 26.9617 18.3244 27.0651 18.0724 27.2527L12.0244 31.7377C11.5815 32.0658 11.1017 32.7397 10.9321 33.2716L10.7056 33.9829C10.6008 34.3114 10.6169 34.5756 10.7537 34.7679C10.8586 34.9153 11.0247 34.9999 11.2095 34.9999C11.3859 34.9999 11.5706 34.9264 11.7744 34.7749L18.5683 29.7373C18.6758 29.6576 18.8331 29.6119 18.9999 29.6119C19.1669 29.6119 19.3247 29.6577 19.4327 29.7376L26.2265 34.7752C26.4302 34.9264 26.615 35 26.7914 35C26.9762 35 27.1423 34.9154 27.2472 34.7679C27.3838 34.5758 27.3999 34.312 27.2951 33.9837L27.0687 33.2719Z" fill="url(#paint7_linear_45_492)"/>
<path d="M36.9729 15.5384C36.9199 15.3721 36.7462 15.0931 36.1787 15.0931H35.4459C34.898 15.0931 34.1217 15.3511 33.6786 15.6806L27.6293 20.1664C27.1099 20.5508 26.8578 21.3412 27.0559 21.9657L29.3665 29.2232C29.5363 29.7555 30.0163 30.4296 30.4595 30.758L31.0516 31.1973C31.255 31.3482 31.4396 31.4216 31.6158 31.4216C31.8005 31.4216 31.9666 31.3371 32.0716 31.1898C32.2083 30.9977 32.2247 30.7335 32.1201 30.4046L29.5251 22.2523C29.4389 21.9816 29.5661 21.5818 29.792 21.4136L36.5868 16.3761C37.0464 16.0347 37.026 15.7047 36.9729 15.5384Z" fill="url(#paint8_linear_45_492)"/>
<path d="M10.3703 20.1662L4.32094 15.6804C3.8779 15.3512 3.10172 15.0932 2.55409 15.0932H1.82103C1.25368 15.0932 1.08009 15.3722 1.02708 15.5385C0.974019 15.7048 0.953603 16.0348 1.41286 16.376L8.20805 21.4142C8.43374 21.582 8.56113 21.9817 8.47495 22.2525L5.87938 30.4058C5.77475 30.7348 5.79107 30.9987 5.92766 31.1906C6.03255 31.3378 6.19859 31.4223 6.38319 31.4223C6.55902 31.4223 6.74361 31.3491 6.9474 31.1985L7.54107 30.7587C7.98352 30.4304 8.4632 29.7566 8.63338 29.2245L10.944 21.9663C11.1422 21.3414 10.8901 20.5508 10.3703 20.1662Z" fill="url(#paint9_linear_45_492)"/>
</g>
<defs>
<filter id="filter0_d_45_492" x="0" y="0" width="38" height="37" filterUnits="userSpaceOnUse" color-interpolation-filters="sRGB">
<feFlood flood-opacity="0" result="BackgroundImageFix"/>
<feColorMatrix in="SourceAlpha" type="matrix" values="0 0 0 0 0 0 0 0 0 0 0 0 0 0 0 0 0 0 127 0" result="hardAlpha"/>
<feOffset dy="1"/>
<feGaussianBlur stdDeviation="0.5"/>
<feComposite in2="hardAlpha" operator="out"/>
<feColorMatrix type="matrix" values="0 0 0 0 0 0 0 0 0 0 0 0 0 0 0 0 0 0 0.19 0"/>
<feBlend mode="normal" in2="BackgroundImageFix" result="effect1_dropShadow_45_492"/>
<feBlend mode="normal" in="SourceGraphic" in2="effect1_dropShadow_45_492" result="shape"/>
</filter>
<linearGradient id="paint0_linear_45_492" x1="19.1328" y1="0" x2="19.1328" y2="35.0001" gradientUnits="userSpaceOnUse">
<stop stop-color="#FEFEFE"/>
<stop offset="1" stop-color="#DBE4E7"/>
</linearGradient>
<linearGradient id="paint1_linear_45_492" x1="19.1328" y1="0" x2="19.1328" y2="35.0001" gradientUnits="userSpaceOnUse">
<stop stop-color="#FEFEFE"/>
<stop offset="1" stop-color="#DBE4E7"/>
</linearGradient>
<linearGradient id="paint2_linear_45_492" x1="19.1328" y1="0" x2="19.1328" y2="35.0001" gradientUnits="userSpaceOnUse">
<stop stop-color="#FEFEFE"/>
<stop offset="1" stop-color="#DBE4E7"/>
</linearGradient>
<linearGradient id="paint3_linear_45_492" x1="19.1328" y1="0" x2="19.1328" y2="35.0001" gradientUnits="userSpaceOnUse">
<stop stop-color="#FEFEFE"/>
<stop offset="1" stop-color="#DBE4E7"/>
</linearGradient>
<linearGradient id="paint4_linear_45_492" x1="19.1328" y1="0" x2="19.1328" y2="35.0001" gradientUnits="userSpaceOnUse">
<stop stop-color="#FEFEFE"/>
<stop offset="1" stop-color="#DBE4E7"/>
</linearGradient>
<linearGradient id="paint5_linear_45_492" x1="19.1328" y1="0" x2="19.1328" y2="35.0001" gradientUnits="userSpaceOnUse">
<stop stop-color="#FEFEFE"/>
<stop offset="1" stop-color="#DBE4E7"/>
</linearGradient>
<linearGradient id="paint6_linear_45_492" x1="19.1328" y1="0" x2="19.1328" y2="35.0001" gradientUnits="userSpaceOnUse">
<stop stop-color="#FEFEFE"/>
<stop offset="1" stop-color="#DBE4E7"/>
</linearGradient>
<linearGradient id="paint7_linear_45_492" x1="19.1328" y1="0" x2="19.1328" y2="35.0001" gradientUnits="userSpaceOnUse">
<stop stop-color="#FEFEFE"/>
<stop offset="1" stop-color="#DBE4E7"/>
</linearGradient>
<linearGradient id="paint8_linear_45_492" x1="19.1328" y1="0" x2="19.1328" y2="35.0001" gradientUnits="userSpaceOnUse">
<stop stop-color="#FEFEFE"/>
<stop offset="1" stop-color="#DBE4E7"/>
</linearGradient>
<linearGradient id="paint9_linear_45_492" x1="19.1328" y1="0" x2="19.1328" y2="35.0001" gradientUnits="userSpaceOnUse">
<stop stop-color="#FEFEFE"/>
<stop offset="1" stop-color="#DBE4E7"/>
</linearGradient>
</defs>
</svg>
