<svg width="38" height="37" viewBox="0 0 38 37" fill="none" xmlns="http://www.w3.org/2000/svg">
<g filter="url(#filter0_d_45_493)">
<path d="M7.47598 13.4903L8.10787 13.9586C8.52481 14.2675 9.2534 14.5095 9.76657 14.5095H15.3038C15.9127 14.5095 16.5371 14.0458 16.7253 13.4539L18.4363 8.08058C18.5954 7.58179 18.5955 6.79968 18.4363 6.30018L18.1952 5.54298C18.0259 5.01249 17.7202 4.93332 17.5531 4.93332C17.3858 4.93332 17.0799 5.01255 16.9112 5.54319L14.9241 11.7836C14.8474 12.0248 14.5517 12.2443 14.3036 12.2443H7.87309C7.32722 12.2443 7.15889 12.5163 7.10716 12.6785C7.05538 12.8408 7.03443 13.162 7.47598 13.4903Z" fill="#AA2D3D"/>
<path d="M14.4414 20.6306C14.6294 20.0389 14.3905 19.2897 13.8978 18.9246L9.41868 15.6031C9.00222 15.2949 8.27384 15.0536 7.76014 15.0536H6.97906C6.43256 15.0536 6.26434 15.326 6.21272 15.4883C6.16109 15.6506 6.14046 15.9718 6.58233 16.2991L11.7852 20.1574C11.9857 20.3063 12.0988 20.6607 12.0222 20.9009L10.0347 27.144C9.93445 27.4592 9.95104 27.7137 10.084 27.9004C10.1871 28.0453 10.3502 28.1284 10.5314 28.1284C10.7015 28.1284 10.8787 28.0583 11.073 27.9141L11.7054 27.4447C12.1212 27.1367 12.5715 26.504 12.7303 26.0044L14.4414 20.6306Z" fill="#AA2D3D"/>
<path d="M21.2747 13.454C21.4637 14.0461 22.0883 14.5095 22.6967 14.5095H28.2334C28.7469 14.5095 29.4757 14.2675 29.8924 13.9585L30.5236 13.4907C30.9661 13.1624 30.9455 12.8411 30.8937 12.6788C30.842 12.5165 30.6737 12.2443 30.1272 12.2443H23.6963C23.4483 12.2443 23.1529 12.0249 23.0765 11.7841L21.0894 5.54298C20.92 5.01244 20.6144 4.93327 20.4473 4.93327C20.28 4.93327 19.974 5.01255 19.8057 5.54341L19.5644 6.30002C19.4053 6.79968 19.4053 7.58179 19.5644 8.08075L21.2747 13.454Z" fill="#AA2D3D"/>
<path d="M31.7875 15.4885C31.7359 15.3261 31.5677 15.0536 31.021 15.0536H30.2401C29.7269 15.0536 28.9985 15.2948 28.5819 15.6026L24.1021 18.9247C23.6092 19.2899 23.3707 20.0393 23.5592 20.6307L25.2698 26.0046C25.4291 26.5047 25.8798 27.1374 26.2958 27.4451L26.9263 27.913C27.1209 28.0575 27.2983 28.1278 27.4687 28.1278C27.6499 28.1278 27.8129 28.0447 27.9161 27.8998C28.0489 27.7131 28.0654 27.4586 27.965 27.1433L25.9783 20.9012C25.9018 20.6605 26.0146 20.306 26.215 20.1575L31.4177 16.2989C31.8595 15.9721 31.839 15.6509 31.7875 15.4885Z" fill="#AA2D3D"/>
<path d="M25.3828 28.1212C25.2235 27.6212 24.7729 26.9887 24.3569 26.6814L19.8786 23.3592C19.6387 23.182 19.327 23.0848 18.9998 23.0848C18.6729 23.0848 18.361 23.182 18.1217 23.3584L13.642 26.6819C13.2256 26.9905 12.7754 27.623 12.6172 28.1218L12.3759 28.879C12.2754 29.1943 12.2919 29.4488 12.4247 29.6355C12.5279 29.7803 12.6909 29.8634 12.8722 29.8634C13.0421 29.8634 13.2192 29.7935 13.4136 29.6497L18.6162 25.7914C18.7112 25.7211 18.8511 25.6805 18.9998 25.6805C19.1485 25.6805 19.2882 25.7209 19.3832 25.7914L24.586 29.6494C24.7801 29.7936 24.9574 29.8639 25.1278 29.8639C25.309 29.8639 25.472 29.7808 25.5752 29.636C25.7082 29.4492 25.7249 29.1947 25.6246 28.8793L25.3828 28.1212Z" fill="#AA2D3D"/>
<path d="M3.2562 10.5858L3.84907 11.0256C4.29317 11.3549 5.06941 11.6128 5.61628 11.6128H13.0938C13.7363 11.6128 14.3952 11.1233 14.5938 10.4985L16.9039 3.24163C17.0738 2.70935 17.0737 1.87602 16.9037 1.34477L16.6778 0.633806C16.5022 0.0823198 16.1888 1.54347e-06 16.0176 1.54347e-06C15.8465 1.54347e-06 15.5332 0.0823201 15.3574 0.633263L12.7617 8.78639C12.6755 9.0576 12.3426 9.30445 12.0632 9.30445H3.66415C3.09628 9.30445 2.9228 9.58342 2.86989 9.74969C2.81705 9.91595 2.7969 10.2457 3.2562 10.5858Z" fill="#4F5D67"/>
<path d="M23.4055 10.4986C23.6049 11.1235 24.264 11.6128 24.906 11.6128H32.3829C32.9295 11.6128 33.7058 11.355 34.1504 11.0258L34.7437 10.5855C35.2025 10.2457 35.1824 9.916 35.1296 9.74974C35.0766 9.58342 34.9031 9.30439 34.3353 9.30439H25.9368C25.6576 9.30439 25.3241 9.05722 25.2374 8.78579L22.642 0.633534C22.4671 0.0823188 22.1533 0 21.9818 0C21.8104 0 21.4967 0.0823187 21.3214 0.63375L21.0952 1.34559C20.926 1.87662 20.926 2.70913 21.0954 3.24049L23.4055 10.4986Z" fill="#4F5D67"/>
<path d="M27.0684 33.2719C26.8993 32.74 26.4195 32.066 25.9763 31.7376L19.9273 27.2522C19.6752 27.065 19.3456 26.9617 18.9997 26.9617C18.6536 26.9617 18.3241 27.0651 18.0721 27.2527L12.0241 31.7377C11.5813 32.0658 11.1015 32.7397 10.9319 33.2716L10.7054 33.9829C10.6006 34.3114 10.6167 34.5756 10.7534 34.7679C10.8583 34.9153 11.0245 34.9999 11.2092 34.9999C11.3856 34.9999 11.5704 34.9264 11.7742 34.7749L18.5681 29.7372C18.6755 29.6576 18.8328 29.6119 18.9997 29.6119C19.1667 29.6119 19.3244 29.6577 19.4324 29.7376L26.2262 34.7752C26.4298 34.9264 26.6147 35 26.7911 35C26.9759 35 27.142 34.9154 27.2469 34.7679C27.3835 34.5758 27.3996 34.312 27.2948 33.9837L27.0684 33.2719Z" fill="#4F5D67"/>
<path d="M36.9729 15.5384C36.9199 15.3721 36.7462 15.0931 36.1787 15.0931H35.4459C34.898 15.0931 34.1217 15.3512 33.6787 15.6806L27.6294 20.1664C27.1099 20.5508 26.8579 21.3413 27.0559 21.9658L29.3666 29.2233C29.5363 29.7556 30.0164 30.4297 30.4595 30.7581L31.0516 31.1973C31.255 31.3483 31.4396 31.4217 31.6158 31.4217C31.8005 31.4217 31.9666 31.3372 32.0716 31.1899C32.2083 30.9978 32.2247 30.7336 32.1201 30.4047L29.5251 22.2524C29.4389 21.9816 29.5662 21.5819 29.7921 21.4137L36.5868 16.3761C37.0464 16.0348 37.026 15.7047 36.9729 15.5384Z" fill="#4F5D67"/>
<path d="M10.3703 20.1662L4.32093 15.6804C3.87789 15.3512 3.10171 15.0932 2.55409 15.0932H1.82102C1.25368 15.0932 1.08009 15.3721 1.02708 15.5385C0.97402 15.7048 0.953603 16.0348 1.41286 16.376L8.20801 21.4142C8.4337 21.582 8.56109 21.9817 8.47491 22.2525L5.87935 30.4058C5.77472 30.7348 5.79104 30.9987 5.92763 31.1906C6.03253 31.3378 6.19857 31.4223 6.38316 31.4223C6.55899 31.4223 6.74358 31.3491 6.94737 31.1985L7.54103 30.7587C7.98349 30.4304 8.46316 29.7566 8.63335 29.2245L10.944 21.9663C11.1421 21.3414 10.8901 20.5508 10.3703 20.1662Z" fill="#4F5D67"/>
</g>
<defs>
<filter id="filter0_d_45_493" x="0" y="0" width="38" height="37" filterUnits="userSpaceOnUse" color-interpolation-filters="sRGB">
<feFlood flood-opacity="0" result="BackgroundImageFix"/>
<feColorMatrix in="SourceAlpha" type="matrix" values="0 0 0 0 0 0 0 0 0 0 0 0 0 0 0 0 0 0 127 0" result="hardAlpha"/>
<feOffset dy="1"/>
<feGaussianBlur stdDeviation="0.5"/>
<feComposite in2="hardAlpha" operator="out"/>
<feColorMatrix type="matrix" values="0 0 0 0 0 0 0 0 0 0 0 0 0 0 0 0 0 0 0.19 0"/>
<feBlend mode="normal" in2="BackgroundImageFix" result="effect1_dropShadow_45_493"/>
<feBlend mode="normal" in="SourceGraphic" in2="effect1_dropShadow_45_493" result="shape"/>
</filter>
</defs>
</svg>
