<svg width="105" height="100" fill="none" xmlns="http://www.w3.org/2000/svg"><path d="M96.582 13.6c4.29 15.852.538 35.783-16.84 41.664-8.074 2.747-18.01.566-23.71-6.112-4.424-5.185-3.78-13.053 3.605-14.354a16.604 16.604 0 0 1 7.705.767 16.825 16.825 0 0 1 6.56 4.178c14.046 14.288-1.818 32.665-16.008 37.7-16.453 5.857-35.13 2.68-49.606-7.122-2.102-1.42-4.45 1.645-2.348 3.064C21.638 84.01 41.7 87.382 59.487 81.021c14.494-5.164 27.599-19.294 22.293-35.695a20.974 20.974 0 0 0-5.936-9.12 21.176 21.176 0 0 0-9.725-4.962c-5.856-1.258-13.661.04-16.458 5.897-3.246 6.683 2.233 14.386 7.632 18.28a26.75 26.75 0 0 0 10.042 4.364c3.606.744 7.316.728 10.886-.047 21.01-4.626 27.25-28.15 22.225-46.676-.65-2.388-4.522-1.89-3.864.538Z" fill="#3742F3"/><path d="M18.242 86.616A178.73 178.73 0 0 1 5.394 70.537l-.744 2.958a134.938 134.938 0 0 0 21.719-10.05c2.124-1.23.549-4.829-1.591-3.574A134.146 134.146 0 0 1 3.072 69.923a1.927 1.927 0 0 0-1.099 1.293 1.945 1.945 0 0 0-.016.875c.062.29.188.565.37.802a178.858 178.858 0 0 0 12.797 16.072c1.68 1.87 4.759-.484 3.053-2.357l.065.008Z" fill="#3742F3"/></svg>