<svg width="69" height="44" fill="none" xmlns="http://www.w3.org/2000/svg"><path d="M68.828 20.14c-1.605-5.816-5.75-11.05-12.672-16.008a.782.782 0 0 0-.46-.148H45.003a.79.79 0 0 0-.789.789v25.723h-.453V.793a.79.79 0 0 0-.79-.79L.798 0a.79.79 0 0 0-.79.79v30.44c0 .016-.007.032-.007.047v5.301a.79.79 0 0 0 .79.79h7.66c.394 3.62 3.468 6.444 7.19 6.444 3.723 0 6.798-2.828 7.192-6.445h25.102c.395 3.621 3.469 6.446 7.192 6.446 3.722 0 6.796-2.829 7.19-6.446h5.755a.79.79 0 0 0 .789-.789V20.34c0-.07-.008-.14-.028-.21l-.004.01ZM45.798 5.57h9.644c6.449 4.664 10.324 9.535 11.832 14.891v3.075h-4.297a.79.79 0 0 0-.79.789v4.582a.79.79 0 0 0 .79.789h4.297v.8h-8.262a7.18 7.18 0 0 0-7.781 0h-5.434V5.566v.004Zm21.48 19.547v3h-3.509v-3h3.508Zm-19.35 10.684H22.827a7.183 7.183 0 0 0-1.543-3.718h28.184a7.214 7.214 0 0 0-1.543 3.718h.004ZM24.292 1.586v15.332l-2.168-1.523a.793.793 0 0 0-.91 0l-2.168 1.523V1.586h5.25-.004ZM1.585 10.7V1.59h15.88v16.855a.791.791 0 0 0 1.245.649l2.961-2.078 2.961 2.078a.8.8 0 0 0 .453.144.793.793 0 0 0 .79-.793V1.59h16.3v28.914H19.527a7.18 7.18 0 0 0-7.781 0H1.59V12.29l-.005-1.59Zm-.012 21.383h8.41A7.215 7.215 0 0 0 8.442 35.8H1.573v-3.718Zm14.06 10.164a5.665 5.665 0 0 1-5.657-5.657 5.665 5.665 0 0 1 5.656-5.656 5.665 5.665 0 0 1 5.657 5.656 5.665 5.665 0 0 1-5.657 5.657Zm39.484 0a5.665 5.665 0 0 1-5.657-5.657 5.665 5.665 0 0 1 5.657-5.656 5.662 5.662 0 0 1 5.656 5.656 5.665 5.665 0 0 1-5.657 5.657ZM67.269 35.8h-4.961a7.183 7.183 0 0 0-1.543-3.718h6.504V35.8Zm-5.145-15.519a.788.788 0 0 0 .789-.758c.125-3.109-3.805-8.605-7.79-10.89a.776.776 0 0 0-.394-.106h-4.78a.79.79 0 0 0-.79.789v10.172c0 .438.356.79.79.79h12.175v.003ZM50.741 10.11h3.777c3.278 1.965 6.25 6.114 6.746 8.59H50.741v-8.59Zm4.383 22.465a4.02 4.02 0 0 0-4.016 4.016 4.02 4.02 0 0 0 4.016 4.015 4.02 4.02 0 0 0 4.015-4.015 4.02 4.02 0 0 0-4.015-4.016Zm0 6.445a2.436 2.436 0 0 1-2.434-2.433c0-1.34 1.09-2.434 2.434-2.434 1.34 0 2.433 1.09 2.433 2.434 0 1.34-1.09 2.433-2.433 2.433ZM15.64 32.575a4.02 4.02 0 0 0-4.016 4.016 4.02 4.02 0 0 0 4.016 4.015 4.02 4.02 0 0 0 4.015-4.015 4.02 4.02 0 0 0-4.015-4.016Zm0 6.445a2.436 2.436 0 0 1-2.434-2.433c0-1.34 1.09-2.434 2.434-2.434 1.34 0 2.433 1.09 2.433 2.434 0 1.34-1.09 2.433-2.433 2.433Z" fill="#fff"/></svg>