<svg width="23" height="25" fill="none" xmlns="http://www.w3.org/2000/svg"><path fill-rule="evenodd" clip-rule="evenodd" d="M.462.822a1.057 1.057 0 0 1 1.458 0l9.58 9.27 9.58-9.27a1.057 1.057 0 0 1 1.459 0 .975.975 0 0 1 0 1.41l-10.31 9.975c-.403.39-1.055.39-1.458 0L.46 2.232a.975.975 0 0 1 0-1.41Z" fill="#333"/><path fill-rule="evenodd" clip-rule="evenodd" d="M.462 12.792a1.057 1.057 0 0 1 1.458 0l9.58 9.27 9.58-9.27a1.057 1.057 0 0 1 1.459 0 .975.975 0 0 1 0 1.41l-10.31 9.975c-.403.39-1.055.39-1.458 0L.46 14.202a.975.975 0 0 1 0-1.41Z" fill="#333"/></svg>