<svg width="52" height="67" fill="none" xmlns="http://www.w3.org/2000/svg"><path d="M48.005 62.27H3.8c-2.101 0-3.8-1.658-3.8-3.706V4.654C0 2.605 1.7.948 3.799.948h44.206c2.1 0 3.8 1.657 3.8 3.706v53.91c0 2.048-1.7 3.706-3.8 3.706ZM3.8 2.97c-.953 0-1.727.754-1.727 1.684v53.91c0 .93.774 1.685 1.727 1.685h44.206c.954 0 1.727-.755 1.727-1.685V4.654c0-.93-.773-1.685-1.727-1.685H3.8Z" fill="#3742F3"/><path d="M34.619 10.18c-1.713 0-3.108-1.362-3.108-3.033 0-1.671 1.395-3.033 3.108-3.033s3.108 1.362 3.108 3.033c0 1.671-1.395 3.032-3.108 3.032Zm0-4.044c-.566 0-1.036.458-1.036 1.01 0 .554.47 1.012 1.036 1.012.566 0 1.036-.458 1.036-1.011 0-.553-.47-1.01-1.036-1.01Zm8.289 4.044c-1.713 0-3.109-1.362-3.109-3.033 0-1.671 1.396-3.033 3.109-3.033s3.108 1.362 3.108 3.033c0 1.671-1.395 3.032-3.108 3.032Zm0-4.044c-.567 0-1.037.458-1.037 1.01 0 .554.47 1.012 1.037 1.012.566 0 1.036-.458 1.036-1.011 0-.553-.47-1.01-1.036-1.01Zm7.86 7.117H1.036C.47 13.253 0 12.794 0 12.242c0-.553.47-1.011 1.036-1.011h49.732c.567 0 1.036.458 1.036 1.01 0 .553-.47 1.012-1.036 1.012Z" fill="#3742F3"/><path d="M13.815 1.958h2.072v10.27h-2.072V1.958ZM28.5 8.157h-8.455c-.566 0-1.036-.458-1.036-1.01 0-.553.47-1.011 1.036-1.011H28.5c.566 0 1.036.458 1.036 1.01 0 .553-.47 1.011-1.036 1.011Zm-2.598 48.049C15.044 56.206 6.216 47.593 6.216 37c0-10.594 8.828-19.206 19.686-19.206 10.859 0 19.686 8.612 19.686 19.206 0 10.593-8.827 19.206-19.686 19.206Zm0-36.39C16.192 19.816 8.29 27.525 8.29 37c0 9.474 7.902 17.184 17.613 17.184 9.712 0 17.614-7.71 17.614-17.184 0-9.475-7.902-17.184-17.614-17.184Z" fill="#3742F3"/><path d="M39.137 39.358c-2.5 0-3.813-.795-4.96-1.496-1.05-.647-1.961-1.2-3.868-1.2-1.906 0-2.818.553-3.868 1.2-1.146.7-2.459 1.496-4.96 1.496-2.5 0-3.812-.795-4.959-1.496-1.05-.647-1.947-1.2-3.868-1.2-.566 0-1.036-.458-1.036-1.01 0-.553.47-1.011 1.036-1.011 2.5 0 3.813.795 4.96 1.496 1.05.647 1.947 1.2 3.854 1.2 1.906 0 2.818-.553 3.868-1.2 1.147-.7 2.459-1.496 4.96-1.496 2.5 0 3.812.795 4.959 1.496 1.05.647 1.962 1.2 3.868 1.2.566 0 1.036.458 1.036 1.01 0 .553-.47 1.011-1.036 1.011h.014Z" fill="#3742F3"/><path d="M25.902 51.488c-8.192 0-14.85-6.496-14.85-14.488 0-7.993 6.658-14.489 14.85-14.489 8.193 0 14.851 6.496 14.851 14.489 0 7.992-6.658 14.488-14.85 14.488Zm0-26.955c-7.045 0-12.778 5.593-12.778 12.467 0 6.873 5.733 12.466 12.778 12.466 7.046 0 12.779-5.593 12.779-12.466 0-6.874-5.733-12.467-12.778-12.467ZM9.325 66.313c-.567 0-1.036-.458-1.036-1.01v-3.626c0-.553.47-1.011 1.036-1.011.566 0 1.036.458 1.036 1.01v3.626c0 .553-.47 1.011-1.036 1.011Zm33.155 0c-.567 0-1.037-.458-1.037-1.01v-3.626c0-.553.47-1.011 1.037-1.011.566 0 1.036.458 1.036 1.01v3.626c0 .553-.47 1.011-1.036 1.011Z" fill="#3742F3"/></svg>