<svg width="67" height="67" fill="none" xmlns="http://www.w3.org/2000/svg"><path fill-rule="evenodd" clip-rule="evenodd" d="M40.19 4.356v6.68-.003c0 .443.366.8.82.8h6.832L40.19 4.356Zm-9.557 19.17a17.104 17.104 0 0 1-4.465 3.4 1.022 1.022 0 0 1-.974 0c-3.41-1.805-6.132-4.635-7.757-8.072a13.607 13.607 0 0 1-1.064-4.934c-.096-1.692 0-3.452.044-5.087a1.01 1.01 0 0 1 .91-.99 30.088 30.088 0 0 0 7.977-1.903.993.993 0 0 1 .745 0 30.334 30.334 0 0 0 7.934 1.888c.5.054.883.454.907.945.067 1.664.142 3.438.043 5.144l.003.003a13.687 13.687 0 0 1-1.058 4.934 19.193 19.193 0 0 1-3.215 4.672h-.03Zm-4.986 1.402a15.853 15.853 0 0 0 6.356-6.932c1.035-2.18.945-5.814.849-8.292a37.225 37.225 0 0 1-3.53-.647 31.512 31.512 0 0 1-3.721-1.133 31.723 31.723 0 0 1-3.721 1.133 36.7 36.7 0 0 1-3.518.647c-.105 2.586-.2 6.004.84 8.3v-.002a15.839 15.839 0 0 0 6.445 6.926Zm1.89-12.2-2.733 2.841-.988-1.039a1.034 1.034 0 0 0-1.44-.048.976.976 0 0 0-.049 1.405l1.713 1.774c.192.205.462.318.744.318s.552-.113.744-.318l3.469-3.633a.976.976 0 0 0-.05-1.405 1.034 1.034 0 0 0-1.439.045l.03.06ZM10.105 28.655a1.041 1.041 0 0 1 1.44-.051.975.975 0 0 1 .049 1.402l-3.126 3.242a1.015 1.015 0 0 1-1.488 0l-1.564-1.621h.003a.973.973 0 0 1 .052-1.403 1.036 1.036 0 0 1 1.436.051l.82.858 2.39-2.478h-.012Zm5 3.293h.003a1.041 1.041 0 0 1-.776-.259.98.98 0 0 1 0-1.467c.21-.188.492-.281.776-.259h23.869c.526.046.933.474.933.994 0 .517-.407.945-.933.99H15.106Zm0 8.03h.003a1 1 0 0 1-1.011-.987A1 1 0 0 1 15.108 38h19.084c.558 0 1.012.443 1.012.99a1 1 0 0 1-1.012.989H15.106Zm0 8.037h.003a1 1 0 0 1-1.011-.988 1 1 0 0 1 1.011-.987h18.98a1 1 0 0 1 1.011.987 1 1 0 0 1-1.012.988H15.106Zm0 8.037h.003a1.019 1.019 0 0 1-.776-.258.976.976 0 0 1 0-1.465c.21-.19.492-.284.776-.258h18.898c.526.042.93.474.93.99 0 .517-.404.949-.93.991h-18.9Zm-5-19.357c.186-.194.44-.307.71-.319.267-.008.532.088.73.267.41.372.432 1 .049 1.403l-3.126 3.242a1.03 1.03 0 0 1-1.489 0l-1.563-1.621h.003a.973.973 0 0 1 .052-1.403 1.03 1.03 0 0 1 1.436.051l.82.858 2.39-2.479h-.012Zm0 8.036c.186-.193.44-.306.71-.315a1.03 1.03 0 0 1 .73.264.976.976 0 0 1 .049 1.403l-3.126 3.241a1.03 1.03 0 0 1-1.489 0l-1.563-1.62h.003a.973.973 0 0 1 .052-1.403 1.03 1.03 0 0 1 1.436.051l.82.852 2.39-2.47-.012-.003Zm0 8.037a1.041 1.041 0 0 1 1.44-.051.979.979 0 0 1 .049 1.405l-3.126 3.242v-.003c-.192.204-.46.318-.744.318a1.02 1.02 0 0 1-.744-.318l-1.564-1.62h.003a.973.973 0 0 1 .052-1.403 1.036 1.036 0 0 1 1.436.05l.82.852 2.39-2.47-.012-.002ZM52.48 31.325l-1.756-1.351h-.003a.751.751 0 0 0-.898 0l-1.76 1.351a2.79 2.79 0 0 1-2.113.545l-2.038-.306a.75.75 0 0 0-.796.45l-.692 1.84A2.64 2.64 0 0 1 40.8 35.43l-1.875.684a.724.724 0 0 0-.462.778l.314 2.012a2.594 2.594 0 0 1-.567 2.064l-1.378 1.715a.719.719 0 0 0 0 .886l1.349 1.708a2.61 2.61 0 0 1 .564 2.073l-.314 2.007.003-.003a.724.724 0 0 0 .462.778l1.875.69a2.634 2.634 0 0 1 1.652 1.578l.7 1.84v-.004a.743.743 0 0 0 .788.489l2.061-.307a2.768 2.768 0 0 1 2.114.545l1.756 1.351v.003a.765.765 0 0 0 .901 0l1.756-1.351v-.003a2.78 2.78 0 0 1 2.123-.545l2.055.307h-.003c.34.048.672-.14.797-.452l.744-1.84v.004a2.62 2.62 0 0 1 1.616-1.579l1.876-.69a.683.683 0 0 0 .462-.777l-.395-2.041a2.585 2.585 0 0 1 .587-2.073l1.384-1.709a.711.711 0 0 0 0-.885l-1.384-1.715a2.59 2.59 0 0 1-.587-2.064l.305-2.012a.724.724 0 0 0-.462-.778l-1.876-.684a2.619 2.619 0 0 1-1.613-1.576l-.745-1.84a.75.75 0 0 0-.796-.45l-2.056.306a2.797 2.797 0 0 1-2.119-.545h.067Zm2.79 6.924c2.019 1.973 2.623 4.94 1.53 7.517-1.093 2.578-3.669 4.258-6.524 4.258-2.858 0-5.433-1.68-6.527-4.258-1.093-2.578-.488-5.544 1.533-7.517 2.759-2.689 7.227-2.689 9.989 0Zm-4.994-4.003c3.68 0 6.998 2.166 8.405 5.487 1.407 3.325.622 7.145-1.986 9.683-2.607 2.538-6.523 3.29-9.919 1.905-3.399-1.383-5.608-4.63-5.596-8.224.017-4.894 4.084-8.85 9.096-8.85ZM53.72 56.5a.678.678 0 0 1 .573-.162l2.061.307c1.285.184 2.527-.534 2.977-1.724l.701-1.83a1.01 1.01 0 0 1 .12-.21l3.854 6.438-3.983-.77a1.004 1.004 0 0 0-1.168.69l-1.323 3.713L53.72 56.5Zm-13.143 5.61H3.445c-.777 0-1.41-.614-1.413-1.375v-56.4c.003-.76.634-1.376 1.413-1.379h34.689v8.079c.006 1.536 1.28 2.779 2.852 2.785h8.268v14.208c-.247.096-.483.23-.692.391l-1.75 1.343a.666.666 0 0 1-.564.148l-2.061-.298c-1.282-.188-2.524.528-2.977 1.714l-.701 1.84v-.003a.735.735 0 0 1-.425.414l-1.883.727c-1.216.44-1.954 1.655-1.762 2.907l.314 2.007h-.003a.626.626 0 0 1-.148.553l-1.399 1.692a2.615 2.615 0 0 0 0 3.327l1.384 1.715v.003a.62.62 0 0 1 .148.545l-.314 2.013h.003c-.192 1.254.544 2.466 1.762 2.906l.314.117-4.8 8.138a.967.967 0 0 0 .061 1.06c.23.311.622.465 1.01.394l5.299-1.025.507 1.453Zm4.079 1.983-.974 1.678a1.017 1.017 0 0 1-.986.54 1.006 1.006 0 0 1-.884-.684l-.543-1.562H3.445C1.558 64.06.023 62.577 0 60.734v-56.4a3.328 3.328 0 0 1 1-2.392A3.495 3.495 0 0 1 3.445.948H39.17c.279-.009.55.097.744.29l11.12 10.857c.198.19.306.455.297.727v15.204c.25.097.482.228.692.392l1.75 1.346v-.003a.67.67 0 0 0 .567.148l2.061-.299c1.282-.187 2.523.529 2.977 1.715l.7 1.84-.002-.003a.69.69 0 0 0 .433.414l1.875.727c1.218.44 1.954 1.655 1.765 2.907l-.314 2.007a.66.66 0 0 0 .148.553l1.384 1.715a2.615 2.615 0 0 1 0 3.327l-1.384 1.715a.644.644 0 0 0-.148.545l.314 2.012c.189 1.255-.547 2.467-1.765 2.907l-.314.117 4.8 8.124h.003a.973.973 0 0 1-.061 1.056c-.23.312-.62.466-1.003.398l-5.3-1.025-1.77 4.965a1.02 1.02 0 0 1-.879.661 1.028 1.028 0 0 1-.976-.508l-4.786-8.045c-.247.205-.526.37-.825.494v2.507c-.006 1.854-1.541 3.352-3.44 3.358h-3.177Zm3.72-6.358-2.58 4.36h2.002-.003c.78 0 1.407-.616 1.407-1.374v-2.492a3.28 3.28 0 0 1-.825-.494Zm-8-4.855a.66.66 0 0 1 .12.21l.7 1.831c.45 1.19 1.692 1.908 2.977 1.724l2.061-.307a.692.692 0 0 1 .579.162l-3.818 6.452-1.293-3.713a1.007 1.007 0 0 0-1.163-.69l-3.989.77 3.812-6.438h.014Zm11.76-12.229v-.002a1.037 1.037 0 0 1 1.436-.051.978.978 0 0 1 .053 1.402l-3.469 3.633a1.022 1.022 0 0 1-1.488 0l-1.736-1.808a.978.978 0 0 1 .052-1.402 1.03 1.03 0 0 1 1.437.05l.997 1.034 2.718-2.856Z" fill="#3742F3"/></svg>