<svg width="18" height="18" fill="none" xmlns="http://www.w3.org/2000/svg"><path d="M5.337.333c-2.85 0-5.17 2.32-5.17 5.17v7.16c0 2.85 2.32 5.17 5.17 5.17h7.159c2.85 0 5.17-2.32 5.17-5.17v-7.16c0-2.85-2.32-5.17-5.17-5.17H5.337Zm0 .796h7.159a4.37 4.37 0 0 1 4.375 4.375v7.159a4.37 4.37 0 0 1-4.375 4.375H5.337a4.37 4.37 0 0 1-4.375-4.375v-7.16A4.37 4.37 0 0 1 5.337 1.13Zm8.352 2.386a.795.795 0 1 0 0 1.59.795.795 0 0 0 0-1.59ZM8.916 4.708a4.381 4.381 0 0 0-4.375 4.375 4.381 4.381 0 0 0 4.375 4.375 4.381 4.381 0 0 0 4.375-4.375 4.381 4.381 0 0 0-4.375-4.375Zm0 .796a3.574 3.574 0 0 1 3.58 3.58 3.574 3.574 0 0 1-3.58 3.579 3.574 3.574 0 0 1-3.579-3.58 3.574 3.574 0 0 1 3.58-3.58Z" fill="#333"/></svg>