<svg width="24.801" height="24.8" fill="none" xmlns="http://www.w3.org/2000/svg"><path d="M7.49.39C3.58.39.4 3.58.4 7.49v9.81c0 3.91 3.18 7.09 7.09 7.09h9.81c3.91 0 7.1-3.18 7.1-7.09V7.49c0-3.91-3.19-7.1-7.1-7.1H7.49Zm0 1.1h9.81c3.32 0 6 2.68 6 6v9.81c0 3.32-2.68 6-6 6H7.49c-3.32 0-6-2.68-6-6V7.49c0-3.32 2.68-6 6-6Zm11.45 3.27c-.29 0-.57.11-.77.32-.21.2-.32.48-.32.77 0 .29.11.57.32.77.2.21.48.32.77.32.29 0 .57-.11.77-.32.21-.2.32-.48.32-.77 0-.29-.11-.57-.32-.77-.2-.21-.48-.32-.77-.32ZM12.4 6.39c-3.31 0-6 2.7-6 6 0 3.31 2.69 6 6 6 3.3 0 6-2.69 6-6 0-3.3-2.7-6-6-6Zm0 1.1c2.71 0 4.9 2.19 4.9 4.9 0 2.72-2.19 4.91-4.9 4.91a4.9 4.9 0 0 1-4.91-4.91c0-2.71 2.19-4.9 4.91-4.9Z" fill="#FFF"/><path d="M.4 7.49v9.81c0 3.91 3.18 7.09 7.09 7.09h9.81c3.91 0 7.1-3.18 7.1-7.09V7.49c0-3.91-3.19-7.1-7.1-7.1H7.49C3.58.39.4 3.58.4 7.49Zm16.9-6c3.32 0 6 2.68 6 6v9.81c0 3.32-2.68 6-6 6H7.49c-3.32 0-6-2.68-6-6V7.49c0-3.32 2.68-6 6-6h9.81Zm.87 3.59c-.21.2-.32.48-.32.77 0 .29.11.57.32.77.2.21.48.32.77.32.29 0 .57-.11.77-.32.21-.2.32-.48.32-.77 0-.29-.11-.57-.32-.77-.2-.21-.48-.32-.77-.32-.29 0-.57.11-.77.32ZM6.4 12.39c0 3.31 2.69 6 6 6 3.3 0 6-2.69 6-6 0-3.3-2.7-6-6-6-3.31 0-6 2.7-6 6Zm10.9 0c0 2.72-2.19 4.91-4.9 4.91a4.9 4.9 0 0 1-4.91-4.91c0-2.71 2.19-4.9 4.91-4.9 2.71 0 4.9 2.19 4.9 4.9Z" stroke="#FFF" stroke-width=".8"/></svg>