<svg width="24.800781" height="24.799805" viewBox="0 0 24.8008 24.7998" fill="none" xmlns="http://www.w3.org/2000/svg" xmlns:xlink="http://www.w3.org/1999/xlink">
	<desc>
			Created with Pixso.
	</desc>
	<defs/>
	<path id="Vector" d="M7.49 0.39C3.58 0.39 0.4 3.58 0.4 7.49L0.4 17.3C0.4 21.21 3.58 24.39 7.49 24.39L17.3 24.39C21.21 24.39 24.4 21.21 24.4 17.3L24.4 7.49C24.4 3.58 21.21 0.39 17.3 0.39L7.49 0.39ZM7.49 1.49L17.3 1.49C20.62 1.49 23.3 4.17 23.3 7.49L23.3 17.3C23.3 20.62 20.62 23.3 17.3 23.3L7.49 23.3C4.17 23.3 1.49 20.62 1.49 17.3L1.49 7.49C1.49 4.17 4.17 1.49 7.49 1.49ZM18.94 4.76C18.65 4.76 18.37 4.87 18.17 5.08C17.96 5.28 17.85 5.56 17.85 5.85C17.85 6.14 17.96 6.42 18.17 6.62C18.37 6.83 18.65 6.94 18.94 6.94C19.23 6.94 19.51 6.83 19.71 6.62C19.92 6.42 20.03 6.14 20.03 5.85C20.03 5.56 19.92 5.28 19.71 5.08C19.51 4.87 19.23 4.76 18.94 4.76ZM12.4 6.39C9.09 6.39 6.4 9.09 6.4 12.39C6.4 15.7 9.09 18.39 12.4 18.39C15.7 18.39 18.4 15.7 18.4 12.39C18.4 9.09 15.7 6.39 12.4 6.39ZM12.4 7.49C15.11 7.49 17.3 9.68 17.3 12.39C17.3 15.11 15.11 17.3 12.4 17.3C9.68 17.3 7.49 15.11 7.49 12.39C7.49 9.68 9.68 7.49 12.4 7.49Z" fill="#FFFFFF" fill-opacity="1.000000" fill-rule="nonzero"/>
	<path id="Vector" d="M0.4 7.49L0.4 17.3C0.4 21.21 3.58 24.39 7.49 24.39L17.3 24.39C21.21 24.39 24.4 21.21 24.4 17.3L24.4 7.49C24.4 3.58 21.21 0.39 17.3 0.39L7.49 0.39C3.58 0.39 0.4 3.58 0.4 7.49ZM17.3 1.49C20.62 1.49 23.3 4.17 23.3 7.49L23.3 17.3C23.3 20.62 20.62 23.3 17.3 23.3L7.49 23.3C4.17 23.3 1.49 20.62 1.49 17.3L1.49 7.49C1.49 4.17 4.17 1.49 7.49 1.49L17.3 1.49ZM18.17 5.08C17.96 5.28 17.85 5.56 17.85 5.85C17.85 6.14 17.96 6.42 18.17 6.62C18.37 6.83 18.65 6.94 18.94 6.94C19.23 6.94 19.51 6.83 19.71 6.62C19.92 6.42 20.03 6.14 20.03 5.85C20.03 5.56 19.92 5.28 19.71 5.08C19.51 4.87 19.23 4.76 18.94 4.76C18.65 4.76 18.37 4.87 18.17 5.08ZM6.4 12.39C6.4 15.7 9.09 18.39 12.4 18.39C15.7 18.39 18.4 15.7 18.4 12.39C18.4 9.09 15.7 6.39 12.4 6.39C9.09 6.39 6.4 9.09 6.4 12.39ZM17.3 12.39C17.3 15.11 15.11 17.3 12.4 17.3C9.68 17.3 7.49 15.11 7.49 12.39C7.49 9.68 9.68 7.49 12.4 7.49C15.11 7.49 17.3 9.68 17.3 12.39Z" stroke="#FFFFFF" stroke-opacity="1.000000" stroke-width="0.800000"/>
</svg>
