<svg width="6.4" height="10.6" fill="none" xmlns="http://www.w3.org/2000/svg"><path d="M.34 10.26a.453.453 0 0 1 0-.66l4.65-4.3L.34.99a.453.453 0 0 1 0-.66c.2-.18.51-.18.71 0l5 4.64c.19.18.19.47 0 .65l-5 4.64c-.2.18-.51.18-.71 0Z" fill="#3742F3" fill-rule="evenodd"/><path d="M4.69 5.3.21 9.46q-.12.1-.17.23Q0 9.8 0 9.93t.04.24q.05.13.17.24.09.08.19.13.14.06.29.06.16 0 .3-.06.1-.05.19-.13l5-4.64q.12-.11.17-.24.05-.11.05-.23 0-.13-.05-.24-.05-.13-.17-.24l-5-4.64Q1.09.1.99.05.85 0 .69 0 .54 0 .41.05.3.1.21.18.09.29.04.42 0 .53 0 .66T.04.9q.05.13.17.23L4.69 5.3Zm.15-.14L.34.99a.453.453 0 0 1 0-.66c.2-.18.51-.18.71 0l5 4.64c.19.18.19.47 0 .65l-5 4.64c-.2.18-.51.18-.71 0a.453.453 0 0 1 0-.66l4.5-4.17.15-.13-.15-.14Z" fill="#3742F3" fill-rule="evenodd"/></svg>