<svg width="6.400391" height="10.599976" viewBox="0 0 6.40039 10.6" fill="none" xmlns="http://www.w3.org/2000/svg" xmlns:xlink="http://www.w3.org/1999/xlink">
	<desc>
			Created with Pixso.
	</desc>
	<defs/>
	<path id="Vector" d="M0.34 10.26C0.15 10.08 0.15 9.78 0.34 9.6L4.99 5.3L0.34 0.99C0.15 0.81 0.15 0.51 0.34 0.33C0.54 0.15 0.85 0.15 1.05 0.33L6.05 4.97C6.24 5.15 6.24 5.44 6.05 5.62L1.05 10.26C0.85 10.44 0.54 10.44 0.34 10.26Z" fill="#3742F3" fill-opacity="1.000000" fill-rule="evenodd"/>
	<path id="Vector" d="M4.69 5.3L0.21 9.46L0.21 9.46Q0.09 9.56 0.04 9.69Q0 9.8 0 9.93Q0 10.06 0.04 10.17Q0.09 10.3 0.21 10.41Q0.3 10.49 0.4 10.54Q0.54 10.6 0.69 10.6Q0.85 10.6 0.99 10.54Q1.09 10.49 1.18 10.41L6.18 5.77Q6.3 5.66 6.35 5.53Q6.4 5.42 6.4 5.3Q6.4 5.17 6.35 5.06Q6.3 4.93 6.18 4.82L1.18 0.18Q1.09 0.1 0.99 0.05Q0.85 0 0.69 0Q0.54 0 0.41 0.05Q0.3 0.1 0.21 0.18Q0.09 0.29 0.04 0.42Q0 0.53 0 0.66Q0 0.79 0.04 0.9Q0.09 1.03 0.21 1.13L4.69 5.3ZM4.84 5.16L0.34 0.99C0.15 0.81 0.15 0.51 0.34 0.33C0.54 0.15 0.85 0.15 1.05 0.33L6.05 4.97C6.24 5.15 6.24 5.44 6.05 5.62L1.05 10.26C0.85 10.44 0.54 10.44 0.34 10.26C0.15 10.08 0.15 9.78 0.34 9.6L4.84 5.43L4.99 5.3L4.84 5.16Z" fill="#3742F3" fill-opacity="1.000000" fill-rule="evenodd"/>
</svg>
