<svg width="49" height="60" fill="none" xmlns="http://www.w3.org/2000/svg"><path fill-rule="evenodd" clip-rule="evenodd" d="M19.736 6.142h9.73c.989 0 .989-1.492 0-1.492h-9.73c-.986.002-.986 1.492 0 1.492Zm8.285 29.793a5.071 5.071 0 0 1 5.063 5.063v2.836a1.17 1.17 0 0 1-1.166 1.181H17.287a1.181 1.181 0 0 1-1.166-1.181v-2.836a5.071 5.071 0 0 1 5.063-5.063h6.837Zm-3.41-.708a4.355 4.355 0 0 0 4.355-4.356 4.359 4.359 0 0 0-4.356-4.37 4.362 4.362 0 0 0-4.37 4.37 4.359 4.359 0 0 0 4.37 4.356Zm0-7.22a2.857 2.857 0 1 1 0 5.712 2.855 2.855 0 1 1 0-5.711Zm-6.999 15.501h13.98v-2.51a3.584 3.584 0 0 0-3.571-3.571h-6.837a3.584 3.584 0 0 0-3.572 3.572v2.51ZM8.696 22.176h-.237v34.338c0 1.094.9 1.995 1.991 1.995h9.05V57.37c0-1.226.989-2.229 2.215-2.229h5.772a2.236 2.236 0 0 1 2.228 2.229v1.138h9.034a2.005 2.005 0 0 0 1.995-1.995l.002-30.397h-.237l-4.014 4.046c-.664.664-1.403.37-1.403-.575v-3.47h-9.625a2.567 2.567 0 0 1-2.554-2.57v-1.372h-8.8v3.455c0 1.033-.767 1.226-1.447.546l-3.97-4.001Zm-1.73 0H3.055A2.563 2.563 0 0 1 .5 19.622l.003-8.727c0-1.419 1.15-2.57 2.554-2.57h3.912V3.5C6.97 1.58 8.534 0 10.453 0h28.302a3.517 3.517 0 0 1 3.498 3.499v8.768h3.898a2.567 2.567 0 0 1 2.554 2.57l-.003 8.71c0 1.417-1.15 2.57-2.554 2.57h-3.897v30.397c0 1.921-1.58 3.486-3.5 3.486h-28.3a3.49 3.49 0 0 1-3.484-3.486V22.176ZM8.46 8.326h15.28a2.567 2.567 0 0 1 2.553 2.57v1.372h14.454V3.499c0-1.106-.9-1.991-1.994-1.991H10.451a1.992 1.992 0 0 0-1.992 1.991v4.827Zm19.752 50.18V57.37a.725.725 0 0 0-.724-.724h-5.772a.725.725 0 0 0-.723.724v1.138h7.219Zm-3.424-46.135v-1.476a1.05 1.05 0 0 0-1.046-1.046H3.057a1.05 1.05 0 0 0-1.034 1.046v8.727c0 .563.474 1.034 1.034 1.034h5.86c.31 0 .458.031.724.265l2.952 2.791v-2.301a.77.77 0 0 1 .768-.755h9.552V14.84c0-1.182.796-2.172 1.874-2.469Zm11.825 15.267v-2.289a.76.76 0 0 0-.768-.752H25.467a1.05 1.05 0 0 1-1.034-1.05v-8.71a1.05 1.05 0 0 1 1.034-1.047h20.681a1.04 1.04 0 0 1 1.034 1.047l.002 8.71c0 .576-.458 1.05-1.033 1.05h-5.816c-.326 0-.474 0-.755.265l-2.968 2.776Zm3.47-5.772c.976 0 .976-1.492 0-1.492h-8.534c-.99 0-.99 1.492 0 1.492h8.534Zm0-3.853c.976 0 .976-1.492 0-1.492h-8.534c-.99 0-.99 1.492 0 1.492h8.534Zm-30.944-.091c-.99 0-.99-1.49 0-1.49h8.534c.974 0 .974 1.49 0 1.49H9.138Zm0-3.838c-.99 0-.99-1.504 0-1.504h8.534c.974 0 .974 1.504 0 1.504H9.138Z" fill="#fff"/></svg>