<svg width="25.000000" height="24.989014" viewBox="0 0 25 24.989" fill="none" xmlns="http://www.w3.org/2000/svg" xmlns:xlink="http://www.w3.org/1999/xlink">
	<desc>
			Created with Pixso.
	</desc>
	<defs/>
	<path id="Vector" d="M24.01 18.94L20.86 16.65C19.9 15.95 18.59 16.05 17.75 16.89L16.06 18.58C15.79 18.85 15.39 18.95 15.04 18.83C10.6 17.28 7.68 14.38 6.13 9.95C6 9.6 6.1 9.19 6.39 8.92L8.07 7.24C8.9 6.39 9 5.09 8.31 4.12L6.01 0.98C5.6 0.41 4.95 0.06 4.26 0C3.57 -0.05 2.88 0.2 2.38 0.69C0.3 2.78 -0.5 5.77 0.3 8.5C2.72 16.8 8.17 22.25 16.48 24.67C17.17 24.88 17.89 24.98 18.61 24.98C20.68 24.98 22.74 24.14 24.3 22.58C24.79 22.08 25.04 21.39 24.99 20.7C24.93 20 24.58 19.37 24.01 18.94L24.01 18.94Z" fill="#3742F3" fill-opacity="1.000000" fill-rule="nonzero"/>
</svg>
