<svg width="6.4" height="10.6" fill="none" xmlns="http://www.w3.org/2000/svg"><path d="M6.05 10.26c.19-.18.19-.48 0-.66L1.4 5.3 6.05.99c.19-.18.19-.48 0-.66a.534.534 0 0 0-.71 0l-5 4.64c-.19.18-.19.47 0 .65l5 4.64c.2.18.51.18.71 0Z" fill="#3742F3" fill-rule="evenodd"/><path d="m1.7 5.3 4.48 4.16q.12.1.17.23.05.11.05.24t-.05.24q-.05.13-.17.24-.09.08-.19.13-.14.06-.29.06-.16 0-.29-.06-.11-.05-.2-.13l-5-4.64q-.12-.11-.17-.24Q0 5.42 0 5.3q0-.13.04-.24.05-.13.17-.24l5-4.64q.09-.08.2-.13Q5.54 0 5.7 0q.15 0 .28.05.11.05.2.13.12.11.17.24.05.11.05.24T6.35.9q-.05.13-.17.23L1.7 5.3Zm-.15-.14L6.05.99c.19-.18.19-.48 0-.66a.534.534 0 0 0-.71 0l-5 4.64c-.19.18-.19.47 0 .65l5 4.64c.2.18.51.18.71 0 .19-.18.19-.48 0-.66l-4.5-4.17-.15-.13.15-.14Z" fill="#3742F3" fill-rule="evenodd"/></svg>