<svg width="54" height="59" fill="none" xmlns="http://www.w3.org/2000/svg"><path fill-rule="evenodd" clip-rule="evenodd" d="M16.333 9.667H42.61c.968 0 .968-1.464 0-1.464H16.333c-.968 0-.968 1.464 0 1.464Zm37.105 4.081-3.725 6.97v31.3c0 3.849-3.12 6.982-6.931 6.982H6.946C3.119 59 0 55.864 0 52.019V6.984C0 3.136 3.119 0 6.946 0h35.836c3.753 0 6.829 3.034 6.93 6.795 3.32.289 5.33 3.948 3.726 6.953Zm-5.184 9.71L36.399 45.703a.76.76 0 0 1-.303.364l-6.844 4.575c-.319.218-.334.174-.678.174H16.33c-.967 0-.967-1.482 0-1.482h11.623V42.58H16.33c-.967 0-.967-1.482 0-1.482h11.825c.88-1.654 2.136-4.007 3.595-6.752H16.33c-.967 0-.967-1.467 0-1.467h16.201l3.61-6.751H16.334c-.968 0-.968-1.482 0-1.482H36.92l3.611-6.752H16.333c-.968 0-.968-1.48 0-1.48H41.31l3.827-7.158a4.76 4.76 0 0 1 3.119-2.381c-.059-2.975-2.498-5.4-5.472-5.4H10.688V57.53h32.096c3.002 0 5.472-2.481 5.472-5.518V23.458h-.002Zm-18.81 25.25.015-6.388 5.27 2.847-5.286 3.54Zm19.36-29.474-5.66-3.05-13.169 24.697 5.66 3.049 13.169-24.696Zm-4.937-4.386 5.645 3.05.707-1.334-5.644-3.05-.708 1.334Zm1.413-2.655 5.66 3.05 1.169-2.223c1.993-3.73-3.654-6.78-5.645-3.049l-1.184 2.222ZM1.477 52.015c0 3.034 2.454 5.517 5.471 5.517H9.23V1.48H6.948c-3.017 0-5.471 2.468-5.471 5.502v45.034Zm3.867-36.977A2.394 2.394 0 0 0 7.74 12.64a2.397 2.397 0 0 0-2.396-2.409c-1.314 0-2.383 1.075-2.383 2.41a2.393 2.393 0 0 0 2.383 2.396Zm0-3.323c.504 0 .925.422.925.929 0 .507-.418.93-.925.93a.935.935 0 0 1-.924-.93c0-.51.42-.93.924-.93Zm0 14.56a2.394 2.394 0 0 0 2.396-2.397 2.393 2.393 0 0 0-2.396-2.393 2.392 2.392 0 0 0-2.383 2.393 2.393 2.393 0 0 0 2.383 2.397Zm0-3.323c.504 0 .925.42.925.929 0 .507-.418.93-.925.93a.935.935 0 0 1-.924-.93c0-.51.42-.93.924-.93Zm0 14.575a2.397 2.397 0 0 0 2.396-2.41 2.396 2.396 0 0 0-2.396-2.396 2.393 2.393 0 0 0-2.383 2.397c.003 1.333 1.07 2.409 2.383 2.409Zm0-3.326a.922.922 0 1 1 0 1.843.922.922 0 1 1 0-1.843Zm0 14.563A2.393 2.393 0 0 0 7.74 46.37a2.399 2.399 0 0 0-2.396-2.412c-1.314 0-2.383 1.075-2.383 2.412a2.392 2.392 0 0 0 2.383 2.394Zm0-3.326c.504 0 .925.407.925.93a.92.92 0 0 1-.925.913.922.922 0 1 1 0-1.843Z" fill="#fff"/></svg>