<svg width="66" height="58" fill="none" xmlns="http://www.w3.org/2000/svg"><path fill-rule="evenodd" clip-rule="evenodd" d="M64.685 48.454H45.941a.773.773 0 1 1 0-1.547H63.91V27.274a3.077 3.077 0 0 0-3.076-3.073H4.625a3.079 3.079 0 0 0-3.075 3.073v19.633h17.968a.773.773 0 1 1 0 1.547H.773A.773.773 0 0 1 0 47.681V27.274a4.628 4.628 0 0 1 4.622-4.622H60.83a4.628 4.628 0 0 1 4.623 4.622v20.407a.773.773 0 0 1-.773.773h.005Z" fill="#fff"/><path fill-rule="evenodd" clip-rule="evenodd" d="M53.63 30.903H11.836a.773.773 0 0 1-.774-.774v-6.705a.773.773 0 1 1 1.547 0v5.932h40.246v-5.932a.773.773 0 1 1 1.547 0v6.705a.774.774 0 0 1-.776.773h.006Zm11.056 17.551H53.63a.773.773 0 1 1 0-1.547h11.055a.773.773 0 1 1 0 1.547ZM4.307 37.53h4v-3.96h-4v3.96Zm4.773 1.55H3.53a.773.773 0 0 1-.773-.774v-5.509c0-.428.348-.773.774-.773H9.08c.429 0 .773.348.773.773v5.51a.773.773 0 0 1-.773.772Zm42.204 9.374a.776.776 0 0 1-.776-.773V35.827H14.953v11.85a.773.773 0 1 1-1.547 0V35.05c0-.428.348-.773.774-.773h37.104c.429 0 .773.347.773.773v12.628a.773.773 0 0 1-.773.773v.003Z" fill="#fff"/><path fill-rule="evenodd" clip-rule="evenodd" d="M20.295 56.45h24.87V40.403h-24.87v16.049ZM45.94 58H19.52a.773.773 0 0 1-.773-.773V39.629c0-.428.348-.773.773-.773h26.42c.429 0 .773.348.773.773v17.598a.773.773 0 0 1-.773.773Zm11.734-30.732a1.13 1.13 0 0 0-1.127 1.127c0 .62.504 1.127 1.127 1.127h2.963a1.128 1.128 0 0 0 0-2.253h-2.963Zm2.963 3.803h-2.963a2.68 2.68 0 0 1-2.676-2.676 2.68 2.68 0 0 1 2.676-2.676h2.963a2.681 2.681 0 0 1 2.676 2.676 2.68 2.68 0 0 1-2.676 2.676Zm-2.963 3.354a1.128 1.128 0 0 0 0 2.253h2.963a1.128 1.128 0 0 0 0-2.253h-2.963Zm2.963 3.803h-2.963a2.68 2.68 0 0 1-2.676-2.677 2.68 2.68 0 0 1 2.676-2.676h2.963a2.68 2.68 0 0 1 2.676 2.676 2.68 2.68 0 0 1-2.676 2.677Zm-2.963 3.354a1.128 1.128 0 0 0 0 2.253h2.963a1.128 1.128 0 0 0 0-2.253h-2.963Zm2.963 3.803h-2.963a2.68 2.68 0 0 1-2.676-2.677 2.68 2.68 0 0 1 2.676-2.676h2.963a2.681 2.681 0 0 1 2.676 2.676 2.68 2.68 0 0 1-2.676 2.677ZM14.71 24.198a.773.773 0 0 1-.774-.774V11.781a2.99 2.99 0 0 1 2.986-2.986h2.598a.773.773 0 1 1 0 1.547h-2.598c-.793 0-1.436.646-1.436 1.437v11.643a.771.771 0 0 1-.773.773l-.003.003Zm36.038 0a.773.773 0 0 1-.774-.774V11.781a1.44 1.44 0 0 0-1.436-1.436H45.94a.773.773 0 1 1 0-1.547h2.598a2.987 2.987 0 0 1 2.983 2.986v11.643a.771.771 0 0 1-.773.774v-.003Z" fill="#fff"/><path fill-rule="evenodd" clip-rule="evenodd" d="M8.225 24.198a.776.776 0 0 1-.776-.774v-5.16a2.543 2.543 0 0 1 2.54-2.54h4.718a.773.773 0 1 1 0 1.546H9.99a.994.994 0 0 0-.993.99v5.162a.771.771 0 0 1-.773.773l.002.003Zm49.011 0a.773.773 0 0 1-.773-.774v-5.16a.993.993 0 0 0-.994-.991h-4.72a.773.773 0 1 1 0-1.547h4.72a2.541 2.541 0 0 1 2.54 2.54v5.161a.771.771 0 0 1-.773.774v-.003Zm-14.476 20.6H22.7a.773.773 0 1 1 0-1.546h20.06a.773.773 0 1 1 0 1.546Zm0 4.401H22.7a.773.773 0 1 1 0-1.547h20.06a.773.773 0 1 1 0 1.547Zm0 4.399H22.7a.773.773 0 1 1 0-1.546h20.06a.773.773 0 1 1 0 1.546ZM20.295 17.595h24.87V1.546h-24.87v16.049Zm25.646 1.549h-26.42a.773.773 0 0 1-.773-.773V.773c0-.428.348-.773.773-.773h26.42c.429 0 .773.348.773.773v17.598a.773.773 0 0 1-.773.773Z" fill="#fff"/></svg>