<svg width="67" height="67" fill="none" xmlns="http://www.w3.org/2000/svg"><mask id="a" fill="#fff"><path d="M65.883 66.313H10.608a10.757 10.757 0 0 1-7.497-3.035A10.236 10.236 0 0 1 0 55.963V2.037c0-.29.118-.566.327-.77.21-.205.494-.32.79-.32H20.1c.296 0 .58.115.79.32.209.204.327.48.327.77V17.34l2.26-3.82 5.583-9.435a1.1 1.1 0 0 1 .68-.507 1.133 1.133 0 0 1 .847.108l16.438 9.26a1.11 1.11 0 0 1 .521.662 1.064 1.064 0 0 1-.111.826l-5.583 9.436-2.26 3.813 3.909-2.203 9.671-5.447c.257-.144.562-.184.848-.109.286.075.53.258.678.508l9.491 16.04c.148.25.189.547.112.826-.077.28-.264.517-.52.662l-9.672 5.447-3.91 2.207h15.684c.297 0 .58.115.79.319.21.204.327.481.327.77v18.52c0 .29-.118.567-.327.77a1.13 1.13 0 0 1-.79.32ZM33.5 64.134h8.933V47.793H33.5v16.341Zm7.734-18.52-7.25-12.253-7.737 4.358 4.672 7.895h10.315Zm-18.9 18.52h8.933V47.793h-8.934v16.341Zm6.006-18.52-4.027-6.805-.863.486-6.874 3.872 1.45 2.447H28.34Zm-16.615-2.232 2.767-1.558 6.166-3.473-6.97-3.922-.5.835L9.22 41.97l2.504 1.413Zm-3.622.476-1.388 2.347 2.777-1.565-1.39-.782Zm4.128 1.756h3.215l-.804-1.357-2.359 1.328-.052.029Zm-1.623 18.52H20.1V47.793h-9.492c-2.22 0-4.351.86-5.922 2.393a8.07 8.07 0 0 0-2.453 5.777c0 2.167.883 4.246 2.453 5.778a8.482 8.482 0 0 0 5.922 2.393ZM2.233 49.418l1.607-2.715H2.233v2.715Zm0-4.893H5.13l1.598-2.701 1.319-2.228 2.24-3.787H2.234v8.716Zm0-10.895h9.343l.734-1.24 4.424-7.475h-14.5v8.715Zm16.75-30.504H2.233v8.716h16.75V3.126Zm0 10.895H2.233v8.715h15.79l.96-1.622V14.02Zm.313 10.982-4.486 7.538 8.082 4.551 1.27-.715 7.663-4.317-12.529-7.057Zm1.778-3.063-.67 1.167 7.322 4.125 6.332 3.566 1.665-.937 3.634-6.141-7.258-4.086-7.252-4.085-3.773 6.39Zm19.4-.104 4.467-7.546-14.504-8.171-4.467 7.546 7.252 4.086 7.253 4.085ZM61.7 36.62l-8.375-14.153-7.737 4.358 4.187 7.08 4.188 7.082L61.7 36.62Zm-9.671 5.447-4.188-7.082-4.187-7.08-6.552 3.69-1.182.665 7.893 13.354h1.919l6.297-3.547Zm1.571 5.726h-8.933v16.341H53.6V47.793Zm11.167 0h-8.934v16.341h8.934V47.793Z"/></mask><path d="M65.883 66.313H10.608a10.757 10.757 0 0 1-7.497-3.035A10.236 10.236 0 0 1 0 55.963V2.037c0-.29.118-.566.327-.77.21-.205.494-.32.79-.32H20.1c.296 0 .58.115.79.32.209.204.327.48.327.77V17.34l2.26-3.82 5.583-9.435a1.1 1.1 0 0 1 .68-.507 1.133 1.133 0 0 1 .847.108l16.438 9.26a1.11 1.11 0 0 1 .521.662 1.064 1.064 0 0 1-.111.826l-5.583 9.436-2.26 3.813 3.909-2.203 9.671-5.447c.257-.144.562-.184.848-.109.286.075.53.258.678.508l9.491 16.04c.148.25.189.547.112.826-.077.28-.264.517-.52.662l-9.672 5.447-3.91 2.207h15.684c.297 0 .58.115.79.319.21.204.327.481.327.77v18.52c0 .29-.118.567-.327.77a1.13 1.13 0 0 1-.79.32ZM33.5 64.134h8.933V47.793H33.5v16.341Zm7.734-18.52-7.25-12.253-7.737 4.358 4.672 7.895h10.315Zm-18.9 18.52h8.933V47.793h-8.934v16.341Zm6.006-18.52-4.027-6.805-.863.486-6.874 3.872 1.45 2.447H28.34Zm-16.615-2.232 2.767-1.558 6.166-3.473-6.97-3.922-.5.835L9.22 41.97l2.504 1.413Zm-3.622.476-1.388 2.347 2.777-1.565-1.39-.782Zm4.128 1.756h3.215l-.804-1.357-2.359 1.328-.052.029Zm-1.623 18.52H20.1V47.793h-9.492c-2.22 0-4.351.86-5.922 2.393a8.07 8.07 0 0 0-2.453 5.777c0 2.167.883 4.246 2.453 5.778a8.482 8.482 0 0 0 5.922 2.393ZM2.233 49.418l1.607-2.715H2.233v2.715Zm0-4.893H5.13l1.598-2.701 1.319-2.228 2.24-3.787H2.234v8.716Zm0-10.895h9.343l.734-1.24 4.424-7.475h-14.5v8.715Zm16.75-30.504H2.233v8.716h16.75V3.126Zm0 10.895H2.233v8.715h15.79l.96-1.622V14.02Zm.313 10.982-4.486 7.538 8.082 4.551 1.27-.715 7.663-4.317-12.529-7.057Zm1.778-3.063-.67 1.167 7.322 4.125 6.332 3.566 1.665-.937 3.634-6.141-7.258-4.086-7.252-4.085-3.773 6.39Zm19.4-.104 4.467-7.546-14.504-8.171-4.467 7.546 7.252 4.086 7.253 4.085ZM61.7 36.62l-8.375-14.153-7.737 4.358 4.187 7.08 4.188 7.082L61.7 36.62Zm-9.671 5.447-4.188-7.082-4.187-7.08-6.552 3.69-1.182.665 7.893 13.354h1.919l6.297-3.547Zm1.571 5.726h-8.933v16.341H53.6V47.793Zm11.167 0h-8.934v16.341h8.934V47.793Z" fill="#3742F3" stroke="#fff" stroke-width=".4" mask="url(#a)"/><path d="M11.172 53.376a3.592 3.592 0 0 0-4.456.43 3.4 3.4 0 0 0-1.032 2.431h-.1.1c0 .68.207 1.344.594 1.91a3.51 3.51 0 0 0 1.584 1.266c.645.26 1.355.328 2.04.195a3.557 3.557 0 0 0 1.806-.943 3.414 3.414 0 0 0 .964-1.76 3.36 3.36 0 0 0-.2-1.986 3.46 3.46 0 0 0-1.3-1.543Zm-1.131 4.076a1.52 1.52 0 0 1-1.886-.181 1.459 1.459 0 0 1-.438-1.034c0-.29.088-.572.252-.812a1.503 1.503 0 0 1 1.534-.621 1.5 1.5 0 0 1 .765.4 1.43 1.43 0 0 1 .325 1.593 1.468 1.468 0 0 1-.552.655Z" fill="#3742F3" stroke="#fff" stroke-width=".2"/></svg>