<svg width="18" height="18" fill="none" xmlns="http://www.w3.org/2000/svg"><path d="m10.108 3.922-.007-.175.007.175a.554.554 0 0 1 .578.545 2.351 2.351 0 0 0 2.363 2.36h.002a.554.554 0 1 1 0 1.109h-.002c-.786 0-1.486-.312-2.08-.772l-.283-.219v4.083a3.239 3.239 0 0 1-3.227 3.227 3.239 3.239 0 0 1-3.228-3.227A3.239 3.239 0 0 1 7.459 7.8h.002a.554.554 0 1 1 0 1.108H7.46c-1.18 0-2.12.94-2.12 2.12 0 1.18.94 2.12 2.12 2.12 1.18 0 2.12-.94 2.12-2.12V4.467a.554.554 0 0 1 .53-.545ZM.342 3.007A2.51 2.51 0 0 1 2.841.508h12.152a2.51 2.51 0 0 1 2.499 2.499V15.16a2.51 2.51 0 0 1-2.499 2.498H2.841A2.51 2.51 0 0 1 .342 15.16V3.007Zm14.651-1.39H2.841a1.38 1.38 0 0 0-1.39 1.39V15.16c0 .776.613 1.39 1.39 1.39h12.152a1.38 1.38 0 0 0 1.39-1.39V3.007a1.38 1.38 0 0 0-1.39-1.39Z" fill="#333" stroke="#fff" stroke-width=".35"/></svg>