<svg width="24" height="24" fill="none" xmlns="http://www.w3.org/2000/svg"><path d="M3.66 0C1.65 0 0 1.65 0 3.66v16.67C0 22.34 1.65 24 3.66 24h16.67c2.01 0 3.67-1.66 3.67-3.67V3.66C24 1.65 22.34 0 20.33 0H3.66Zm0 2h16.67c.93 0 1.67.73 1.67 1.66v16.67c0 .93-.74 1.67-1.67 1.67H3.66C2.73 22 2 21.26 2 20.33V3.66C2 2.73 2.73 2 3.66 2Zm9.96 2.68c-.26.01-.5.12-.68.3-.17.18-.27.43-.28.68v9c0 1.49-1.18 2.67-2.66 2.67a2.65 2.65 0 0 1-2.67-2.67C7.33 13.18 8.51 12 10 12c.13 0 .26-.03.38-.08s.24-.12.33-.21c.1-.1.17-.21.22-.33.05-.12.08-.25.08-.38 0-.14-.03-.27-.08-.39s-.12-.23-.22-.33c-.09-.09-.21-.16-.33-.21A.83.83 0 0 0 10 10c-2.57 0-4.67 2.1-4.67 4.66 0 2.57 2.1 4.67 4.67 4.67 2.56 0 4.66-2.1 4.66-4.67V9.55c.85.66 1.86 1.11 3 1.11.13 0 .27-.02.39-.07s.23-.12.33-.22c.09-.09.17-.2.22-.32.05-.12.08-.26.08-.39s-.03-.26-.08-.38a.955.955 0 0 0-.22-.33c-.1-.09-.21-.17-.33-.22-.12-.05-.26-.07-.39-.07-1.67 0-3-1.33-3-3 0-.13-.03-.26-.08-.39-.06-.12-.13-.23-.23-.32s-.21-.16-.34-.21a.865.865 0 0 0-.39-.06Z" fill="#FFF"/><path d="M3.66 0C1.65 0 0 1.65 0 3.66v16.67C0 22.34 1.65 24 3.66 24h16.67c2.01 0 3.67-1.66 3.67-3.67V3.66C24 1.65 22.34 0 20.33 0H3.66ZM.09 20.33V3.66q0-.37.08-.72.07-.34.21-.66.12-.29.28-.54.21-.32.48-.6.28-.27.6-.48.25-.16.54-.28.32-.14.66-.21.35-.07.72-.07h16.67q.37 0 .72.07.34.07.66.21.29.12.54.28.32.21.6.48.27.28.48.6.16.25.28.54.14.32.21.66.08.35.08.72v16.67q0 .37-.08.72-.07.34-.21.66-.12.29-.28.54-.21.32-.48.6-.28.27-.6.48-.25.16-.54.28-.32.14-.66.21-.35.07-.72.07H3.66q-.37 0-.72-.07-.34-.07-.66-.21-.29-.12-.54-.28-.32-.21-.6-.48-.27-.28-.48-.6-.16-.25-.28-.54-.14-.32-.21-.66-.08-.35-.08-.72ZM20.78 1.95q-.22-.06-.45-.06H3.66q-.23 0-.45.06-.12.03-.24.08-.16.07-.31.17-.13.09-.25.21t-.21.25q-.1.15-.17.31-.05.12-.08.24-.05.22-.05.45v16.67q0 .23.05.45.03.12.08.24.07.16.17.31.09.13.21.25t.25.21q.15.1.31.17.12.05.24.08.22.06.45.06h16.67q.23 0 .45-.06.12-.03.24-.08.16-.07.31-.17.13-.09.25-.21t.21-.25q.1-.15.17-.31.05-.12.08-.24.05-.22.05-.45V3.66q0-.23-.05-.45-.03-.12-.08-.24-.07-.16-.17-.31-.09-.13-.21-.25t-.25-.21q-.15-.1-.31-.17-.12-.05-.24-.08ZM3.66 2h16.67c.93 0 1.67.73 1.67 1.66v16.67c0 .93-.74 1.67-1.67 1.67H3.66C2.73 22 2 21.26 2 20.33V3.66C2 2.73 2.73 2 3.66 2Zm11.1 7.63c.83.61 1.8 1.03 2.9 1.03.13 0 .27-.02.39-.07s.23-.12.33-.22c.09-.09.17-.2.22-.32.05-.12.08-.26.08-.39s-.03-.26-.08-.38a.955.955 0 0 0-.22-.33c-.1-.09-.21-.17-.33-.22-.12-.05-.26-.07-.39-.07-1.67 0-3-1.33-3-3 0-.13-.03-.26-.08-.39-.06-.12-.13-.23-.23-.32s-.21-.16-.34-.21a.865.865 0 0 0-.39-.06c-.26.01-.5.12-.68.3-.17.18-.27.43-.28.68v9c0 1.49-1.18 2.67-2.66 2.67a2.65 2.65 0 0 1-2.67-2.67C7.33 13.18 8.51 12 10 12c.13 0 .26-.03.38-.08s.24-.12.33-.21c.1-.1.17-.21.22-.33.05-.12.08-.25.08-.38 0-.14-.03-.27-.08-.39s-.12-.23-.22-.33c-.09-.09-.21-.16-.33-.21A.83.83 0 0 0 10 10c-2.57 0-4.67 2.1-4.67 4.66 0 2.57 2.1 4.67 4.67 4.67 2.56 0 4.66-2.1 4.66-4.67V9.55c.04.03.07.05.1.08Zm-1.93-4.3q.06-.15.19-.28.12-.13.27-.2.15-.07.33-.07.09-.01.18.01.09.01.18.04.08.03.16.08.07.05.14.11t.12.14q.05.07.09.15.04.1.05.19.02.08.02.16 0 .39.09.75.06.24.15.46.12.28.28.52.17.25.38.47.22.21.47.38.24.16.52.28.22.09.45.15.37.09.76.09.09 0 .18.02.09.01.17.05.09.03.16.08t.14.11q.06.06.11.14.05.07.09.15.03.09.05.17.02.09.02.18t-.02.18q-.02.09-.05.17-.04.08-.09.16-.05.07-.11.13-.07.07-.14.11-.07.05-.16.09-.07.03-.15.04-.1.02-.2.02-.24 0-.48-.03-1.27-.14-2.46-1.06l-.16-.12v5.31q0 .48-.1.94-.09.43-.26.83-.16.37-.37.71-.26.4-.61.75-.35.34-.75.61-.33.21-.7.37-.41.17-.83.26-.46.1-.94.1-.49 0-.95-.1-.42-.09-.83-.26-.37-.16-.7-.37-.4-.27-.75-.61-.35-.35-.61-.75-.21-.34-.37-.71-.17-.4-.26-.83-.1-.46-.1-.94 0-.48.1-.94.09-.42.26-.83.16-.37.37-.7.26-.41.61-.75.35-.35.75-.61.33-.22.7-.37.4-.17.82-.26.47-.1.96-.1.09-.01.17.01.09.02.17.05.09.03.16.08.08.05.14.11.07.07.11.14.05.07.09.16.03.08.05.17.02.08.02.18 0 .09-.02.17-.02.09-.05.17-.04.09-.09.16-.04.07-.11.14-.06.06-.14.11-.07.05-.16.08-.07.03-.15.05-.09.02-.19.01-.35 0-.68.09-.21.05-.41.13-.25.1-.46.25-.22.15-.42.34-.19.19-.33.41-.15.22-.26.47-.08.2-.13.41-.08.32-.08.67 0 .35.08.68.05.2.13.4.11.25.26.47.14.22.33.41.2.19.42.34.21.15.46.25.2.09.41.14.33.08.68.08.34 0 .67-.08.21-.05.41-.14.25-.1.46-.25.22-.15.42-.34.19-.19.33-.41.15-.22.26-.47.08-.2.13-.4.08-.33.08-.68v-9q0-.18.07-.33Z" fill="#3742F3" fill-rule="evenodd"/></svg>