<svg width="24.6" height="24.601" fill="none" xmlns="http://www.w3.org/2000/svg"><path d="M12.29.3c-6.62 0-12 5.37-12 12 0 2.12.59 4.11 1.56 5.84L.31 23.63c-.02.09-.02.18 0 .27.02.09.07.17.13.24.07.06.14.11.23.13.09.03.18.03.27.01l5.73-1.42c1.68.9 3.59 1.44 5.62 1.44 6.63 0 12-5.38 12-12 0-6.63-5.37-12-12-12Zm0 1.04c6.06 0 10.96 4.9 10.96 10.96 0 6.05-4.9 10.95-10.96 10.95-1.94 0-3.76-.5-5.34-1.39a.55.55 0 0 0-.38-.05l-5.01 1.24 1.34-4.79c.02-.07.03-.14.02-.21a.48.48 0 0 0-.07-.2 10.91 10.91 0 0 1-1.51-5.55c0-6.06 4.9-10.96 10.95-10.96ZM7.93 6.03c-.33 0-.81.13-1.2.55-.24.26-1.22 1.21-1.22 2.89 0 1.76 1.22 3.27 1.37 3.47-.02-.02.18.27.45.62s.64.8 1.11 1.3c.94.99 2.27 2.13 3.91 2.84.76.32 1.35.51 1.8.65.84.27 1.6.23 2.18.14.43-.06.9-.27 1.37-.56.46-.3.92-.67 1.12-1.22.15-.4.22-.77.25-1.08.01-.15.01-.28 0-.41-.01-.12 0-.22-.11-.41-.25-.4-.52-.41-.81-.55-.16-.08-.61-.3-1.07-.52-.45-.21-.85-.41-1.09-.49-.15-.06-.34-.14-.61-.11-.27.03-.54.23-.69.46-.15.22-.74.92-.92 1.12 0 0 .01.01-.06-.03-.22-.11-.5-.2-.9-.41-.4-.22-.91-.53-1.46-1.02-.83-.73-1.4-1.64-1.59-1.94l.03-.03c.19-.18.35-.4.49-.56.2-.23.28-.43.38-.61.19-.38.08-.79-.03-1.01.01.02-.06-.13-.13-.3-.07-.17-.16-.39-.26-.62-.19-.47-.41-1-.54-1.3-.15-.37-.36-.63-.63-.75-.27-.13-.51-.09-.52-.09-.19-.01-.41-.02-.62-.02Zm0 1.05c.21 0 .4 0 .57.01.17.01.16.01.13-.01-.04-.01.01-.02.11.21.12.3.34.83.54 1.3l.26.63c.08.17.11.27.16.36.05.09.04.04.03.07-.11.22-.13.27-.24.4-.17.19-.34.41-.43.5-.08.08-.23.2-.32.44s-.05.57.1.82c.19.33.83 1.36 1.82 2.23.62.55 1.2.91 1.66 1.16.47.24.84.39.93.43.2.1.42.17.67.14.26-.03.48-.18.62-.34.18-.21.74-.84 1-1.23.01 0 .01 0 .1.03.04.01.54.24.99.45.45.22.91.44 1.06.52.21.1.31.17.34.17v.17c-.02.21-.08.5-.19.81-.05.15-.34.47-.7.7-.36.22-.8.39-.96.41-.49.07-1.07.1-1.71-.1-.44-.14-1-.32-1.71-.62-1.45-.62-2.68-1.67-3.56-2.6-.44-.46-.79-.89-1.04-1.22-.25-.32-.36-.49-.45-.61-.16-.22-1.15-1.6-1.15-2.84 0-1.31.6-1.82.94-2.18.17-.18.36-.21.43-.21Z" fill="#FFF"/><path d="M.29 12.3c0 2.12.59 4.11 1.56 5.84L.31 23.63c-.02.09-.02.18 0 .27.02.09.07.17.13.24.07.06.14.11.23.13.09.03.18.03.27.01l5.73-1.42c1.68.9 3.59 1.44 5.62 1.44 6.63 0 12-5.38 12-12 0-6.63-5.37-12-12-12-6.62 0-12 5.37-12 12Zm22.96 0c0 6.05-4.9 10.95-10.96 10.95-1.94 0-3.76-.5-5.34-1.39a.55.55 0 0 0-.38-.05l-5.01 1.24 1.34-4.79c.02-.07.03-.14.02-.21a.48.48 0 0 0-.07-.2 10.91 10.91 0 0 1-1.51-5.55c0-6.06 4.9-10.96 10.95-10.96 6.06 0 10.96 4.9 10.96 10.96ZM6.73 6.58c-.24.26-1.22 1.21-1.22 2.89 0 1.76 1.22 3.27 1.37 3.47-.02-.02.18.27.45.62s.64.8 1.11 1.3c.94.99 2.27 2.13 3.91 2.84.76.32 1.35.51 1.8.65.84.27 1.6.23 2.18.14.43-.06.9-.27 1.37-.56.46-.3.92-.67 1.12-1.22.15-.4.22-.77.25-1.08.01-.15.01-.28 0-.41-.01-.12 0-.22-.11-.41-.25-.4-.52-.41-.81-.55-.16-.08-.61-.3-1.07-.52-.45-.21-.85-.41-1.09-.49-.15-.06-.34-.14-.61-.11-.27.03-.54.23-.69.46-.15.22-.74.92-.92 1.12 0 0 .01.01-.06-.03-.22-.11-.5-.2-.9-.41-.4-.22-.91-.53-1.46-1.02-.83-.73-1.4-1.64-1.59-1.94l.03-.03c.19-.18.35-.4.49-.56.2-.23.28-.43.38-.61.19-.38.08-.79-.03-1.01.01.02-.06-.13-.13-.3-.07-.17-.16-.39-.26-.62-.19-.47-.41-1-.54-1.3-.15-.37-.36-.63-.63-.75-.27-.13-.51-.09-.52-.09-.19-.01-.41-.02-.62-.02-.33 0-.81.13-1.2.55Zm1.77.51c.17.01.16.01.13-.01-.04-.01.01-.02.11.21.12.3.34.83.54 1.3l.26.63c.08.17.11.27.16.36.05.09.04.04.03.07-.11.22-.13.27-.24.4-.17.19-.34.41-.43.5-.08.08-.23.2-.32.44s-.05.57.1.82c.19.33.83 1.36 1.82 2.23.62.55 1.2.91 1.66 1.16.47.24.84.39.93.43.2.1.42.17.67.14.26-.03.48-.18.62-.34.18-.21.74-.84 1-1.23.01 0 .01 0 .1.03.04.01.54.24.99.45.45.22.91.44 1.06.52.21.1.31.17.34.17v.17c-.02.21-.08.5-.19.81-.05.15-.34.47-.7.7-.36.22-.8.39-.96.41-.49.07-1.07.1-1.71-.1-.44-.14-1-.32-1.71-.62-1.45-.62-2.68-1.67-3.56-2.6-.44-.46-.79-.89-1.04-1.22-.25-.32-.36-.49-.45-.61-.16-.22-1.15-1.6-1.15-2.84 0-1.31.6-1.82.94-2.18.17-.18.36-.21.43-.21.21 0 .4 0 .57.01Z" stroke="#FFF" stroke-width=".6"/></svg>