<svg width="18" height="18" fill="none" xmlns="http://www.w3.org/2000/svg"><path d="M9.083.333c-4.828 0-8.75 3.922-8.75 8.75 0 1.552.426 3 1.135 4.264L.348 17.35a.38.38 0 0 0 .457.472l4.173-1.034a8.688 8.688 0 0 0 4.105 1.045c4.828 0 8.75-3.922 8.75-8.75 0-4.828-3.922-8.75-8.75-8.75Zm0 .761a7.983 7.983 0 0 1 7.99 7.99 7.983 7.983 0 0 1-7.99 7.988 7.947 7.947 0 0 1-3.895-1.014.38.38 0 0 0-.277-.037l-3.655.906.98-3.497a.38.38 0 0 0-.038-.296 7.943 7.943 0 0 1-1.104-4.05 7.984 7.984 0 0 1 7.989-7.99Zm-3.18 3.424c-.243 0-.592.09-.878.399-.172.185-.888.883-.888 2.11 0 1.278.887 2.382.995 2.524a12.054 12.054 0 0 0 1.143 1.401c.686.723 1.65 1.558 2.848 2.069.552.234.987.376 1.316.48a3.51 3.51 0 0 0 1.585.1c.313-.045.657-.196.997-.411.34-.215.674-.483.821-.89.105-.292.16-.562.178-.783.01-.111.011-.21.004-.3-.007-.09 0-.16-.084-.298-.177-.291-.377-.299-.587-.402-.116-.058-.447-.22-.78-.378-.33-.158-.618-.298-.795-.361-.112-.04-.248-.098-.445-.076-.197.022-.391.165-.505.332-.107.16-.539.67-.67.82-.002-.002.01.003-.043-.022-.163-.081-.362-.15-.657-.305a5.433 5.433 0 0 1-1.067-.74v-.002c-.6-.528-1.021-1.192-1.154-1.415.01-.01 0 .002.018-.016v-.001c.137-.134.257-.293.358-.41.144-.166.208-.312.277-.45.137-.271.06-.571-.019-.729.006.01-.043-.096-.095-.22l-.19-.454-.396-.95c-.112-.265-.262-.456-.46-.548-.197-.092-.37-.065-.378-.066a9.963 9.963 0 0 0-.448-.008Zm0 .76c.147 0 .292.003.413.008.125.007.117.007.093-.004-.025-.011.009-.015.08.153l.395.947.191.459c.054.126.083.196.116.264l.001.001c.033.065.03.023.019.046-.08.16-.092.199-.173.292-.123.143-.25.301-.316.367-.059.058-.164.147-.23.322a.736.736 0 0 0 .07.595c.141.24.605.994 1.326 1.629.454.4.877.665 1.215.843.338.178.613.283.675.313a.854.854 0 0 0 .492.106.74.74 0 0 0 .448-.25c.136-.155.54-.615.733-.9.008.004.006.001.07.024v.001c.03.01.398.175.726.332.328.156.66.318.769.372.156.077.23.127.249.128a.895.895 0 0 1-.002.125 2.424 2.424 0 0 1-.136.59c-.04.111-.25.34-.512.506-.264.167-.584.284-.703.302a2.72 2.72 0 0 1-1.245-.074 12.742 12.742 0 0 1-1.245-.454c-1.056-.45-1.954-1.217-2.595-1.892-.32-.338-.577-.652-.76-.89-.182-.237-.262-.36-.328-.448h-.001c-.118-.156-.84-1.16-.84-2.064 0-.958.445-1.333.685-1.592a.451.451 0 0 1 .32-.156Z" fill="#333"/></svg>